<mxfile host="app.diagrams.net" modified="2024-01-11T11:44:07.486Z" agent="Mozilla/5.0 (Windows NT 10.0; Win64; x64) AppleWebKit/537.36 (KHTML, like Gecko) Chrome/120.0.0.0 Safari/537.36" etag="TWSbYrBghkAfmqF80ZCj" version="22.1.18" type="github">
  <diagram name="Page-1" id="1fI7LtTeoU0zJGXn7ISi">
    <mxGraphModel dx="819" dy="426" grid="1" gridSize="10" guides="1" tooltips="1" connect="1" arrows="1" fold="1" page="1" pageScale="1" pageWidth="850" pageHeight="1100" background="none" math="0" shadow="0">
      <root>
        <mxCell id="0" />
        <mxCell id="1" parent="0" />
        <mxCell id="CzFrGwOpRJIVh9ln8tWY-4" value="&lt;div style=&quot;line-height: 100%; font-size: 6px;&quot;&gt;-- XOR gate (ESD figure 2.3)&lt;/div&gt;&lt;div style=&quot;line-height: 100%; font-size: 6px;&quot;&gt;--------------------------------------&lt;/div&gt;&lt;div style=&quot;line-height: 100%; font-size: 6px;&quot;&gt;entity XOR_ent is&lt;/div&gt;&lt;div style=&quot;line-height: 100%; font-size: 6px;&quot;&gt;port( x: in std_logic;&lt;/div&gt;&lt;div style=&quot;line-height: 100%; font-size: 6px;&quot;&gt;y: in std_logic;&lt;/div&gt;&lt;div style=&quot;line-height: 100%; font-size: 6px;&quot;&gt;F: out std_logic&lt;/div&gt;&lt;div style=&quot;line-height: 100%; font-size: 6px;&quot;&gt;);&lt;/div&gt;&lt;div style=&quot;line-height: 100%; font-size: 6px;&quot;&gt;end XOR_ent;&lt;/div&gt;&lt;div style=&quot;line-height: 100%; font-size: 6px;&quot;&gt;--------------------------------------&lt;/div&gt;&lt;div style=&quot;line-height: 100%; font-size: 6px;&quot;&gt;architecture behv1 of XOR_ent is&lt;/div&gt;&lt;div style=&quot;line-height: 100%; font-size: 6px;&quot;&gt;begin&lt;/div&gt;&lt;div style=&quot;line-height: 100%; font-size: 6px;&quot;&gt;&lt;br style=&quot;font-size: 6px;&quot;&gt;&lt;/div&gt;&lt;div style=&quot;line-height: 100%; font-size: 6px;&quot;&gt;process(x, y)&lt;/div&gt;&lt;div style=&quot;line-height: 100%; font-size: 6px;&quot;&gt;begin&lt;/div&gt;&lt;div style=&quot;line-height: 100%; font-size: 6px;&quot;&gt;-- compare to truth table&lt;/div&gt;&lt;div style=&quot;line-height: 100%; font-size: 6px;&quot;&gt;if (x/=y) then&lt;/div&gt;&lt;div style=&quot;line-height: 100%; font-size: 6px;&quot;&gt;F &amp;lt;= &#39;1&#39;;&lt;/div&gt;&lt;div style=&quot;line-height: 100%; font-size: 6px;&quot;&gt;else&lt;/div&gt;&lt;div style=&quot;line-height: 100%; font-size: 6px;&quot;&gt;F &amp;lt;= &#39;0&#39;;&lt;/div&gt;&lt;div style=&quot;line-height: 100%; font-size: 6px;&quot;&gt;end if;&lt;/div&gt;&lt;div style=&quot;line-height: 100%; font-size: 6px;&quot;&gt;end process;&lt;/div&gt;&lt;div style=&quot;line-height: 100%; font-size: 6px;&quot;&gt;&lt;br style=&quot;font-size: 6px;&quot;&gt;&lt;/div&gt;&lt;div style=&quot;line-height: 100%; font-size: 6px;&quot;&gt;end behv1;&lt;/div&gt;&lt;div style=&quot;line-height: 100%; font-size: 6px;&quot;&gt;&lt;br style=&quot;font-size: 6px;&quot;&gt;&lt;/div&gt;&lt;div style=&quot;line-height: 100%; font-size: 6px;&quot;&gt;architecture behv2 of XOR_ent is&lt;/div&gt;&lt;div style=&quot;line-height: 100%; font-size: 6px;&quot;&gt;begin&lt;/div&gt;&lt;div style=&quot;line-height: 100%; font-size: 6px;&quot;&gt;&lt;br style=&quot;font-size: 6px;&quot;&gt;&lt;/div&gt;&lt;div style=&quot;line-height: 100%; font-size: 6px;&quot;&gt;F &amp;lt;= x xor y;&lt;/div&gt;&lt;div style=&quot;line-height: 100%; font-size: 6px;&quot;&gt;&lt;br style=&quot;font-size: 6px;&quot;&gt;&lt;/div&gt;&lt;div style=&quot;line-height: 100%; font-size: 6px;&quot;&gt;end behv2;&lt;/div&gt;&lt;div style=&quot;line-height: 100%; font-size: 6px;&quot;&gt;--------------------------------------&lt;/div&gt;" style="text;whiteSpace=wrap;html=1;fontSize=6;fontColor=#000000;textDirection=ltr;spacing=0;fontFamily=Times New Roman;verticalAlign=top;horizontal=1;strokeColor=default;" vertex="1" parent="1">
          <mxGeometry x="270" y="280" width="90" height="190" as="geometry" />
        </mxCell>
        <mxCell id="CzFrGwOpRJIVh9ln8tWY-5" value="&lt;div style=&quot;orphans: 2; text-align: start; text-indent: 0px; widows: 2; text-decoration-thickness: initial; text-decoration-style: initial; text-decoration-color: initial; overflow-wrap: break-word; line-height: 100%; font-size: 6px;&quot;&gt;&lt;div style=&quot;overflow-wrap: break-word; line-height: 100%; font-size: 6px;&quot;&gt;-- AND gate (ESD book figure 2.3)&amp;nbsp; &amp;nbsp; &amp;nbsp; &amp;nbsp;&amp;nbsp;&lt;/div&gt;&lt;div style=&quot;overflow-wrap: break-word; line-height: 100%; font-size: 6px;&quot;&gt;--------------------------------------------------&lt;/div&gt;&lt;div style=&quot;overflow-wrap: break-word; line-height: 100%; font-size: 6px;&quot;&gt;entity AND_ent is&lt;/div&gt;&lt;div style=&quot;overflow-wrap: break-word; line-height: 100%; font-size: 6px;&quot;&gt;port(&amp;nbsp; &amp;nbsp; x: in std_logic;&lt;/div&gt;&lt;div style=&quot;overflow-wrap: break-word; line-height: 100%; font-size: 6px;&quot;&gt;&amp;nbsp; &amp;nbsp; y: in std_logic;&lt;/div&gt;&lt;div style=&quot;overflow-wrap: break-word; line-height: 100%; font-size: 6px;&quot;&gt;&amp;nbsp; &amp;nbsp; F: out std_logic&lt;/div&gt;&lt;div style=&quot;overflow-wrap: break-word; line-height: 100%; font-size: 6px;&quot;&gt;);&lt;/div&gt;&lt;div style=&quot;overflow-wrap: break-word; line-height: 100%; font-size: 6px;&quot;&gt;end AND_ent;&lt;/div&gt;&lt;div style=&quot;overflow-wrap: break-word; line-height: 100%; font-size: 6px;&quot;&gt;--------------------------------------------------&lt;/div&gt;&lt;div style=&quot;overflow-wrap: break-word; line-height: 100%; font-size: 6px;&quot;&gt;architecture behav1 of AND_ent is&lt;/div&gt;&lt;div style=&quot;overflow-wrap: break-word; line-height: 100%; font-size: 6px;&quot;&gt;begin&lt;/div&gt;&lt;div style=&quot;overflow-wrap: break-word; line-height: 100%; font-size: 6px;&quot;&gt;&lt;br style=&quot;font-size: 6px;&quot;&gt;&lt;/div&gt;&lt;div style=&quot;overflow-wrap: break-word; line-height: 100%; font-size: 6px;&quot;&gt;process(x, y)&lt;/div&gt;&lt;div style=&quot;overflow-wrap: break-word; line-height: 100%; font-size: 6px;&quot;&gt;begin&lt;/div&gt;&lt;div style=&quot;overflow-wrap: break-word; line-height: 100%; font-size: 6px;&quot;&gt;-- compare to truth table&lt;/div&gt;&lt;div style=&quot;overflow-wrap: break-word; line-height: 100%; font-size: 6px;&quot;&gt;if ((x=&#39;1&#39;) and (y=&#39;1&#39;)) then&lt;/div&gt;&lt;div style=&quot;overflow-wrap: break-word; line-height: 100%; font-size: 6px;&quot;&gt;&amp;nbsp; &amp;nbsp; &amp;nbsp;F &amp;lt;= &#39;1&#39;;&lt;/div&gt;&lt;div style=&quot;overflow-wrap: break-word; line-height: 100%; font-size: 6px;&quot;&gt;&amp;nbsp; &amp;nbsp; else&lt;/div&gt;&lt;div style=&quot;overflow-wrap: break-word; line-height: 100%; font-size: 6px;&quot;&gt;&amp;nbsp; &amp;nbsp; &amp;nbsp;F &amp;lt;= &#39;0&#39;;&lt;/div&gt;&lt;div style=&quot;overflow-wrap: break-word; line-height: 100%; font-size: 6px;&quot;&gt;&amp;nbsp; &amp;nbsp; end if;&lt;/div&gt;&lt;div style=&quot;overflow-wrap: break-word; line-height: 100%; font-size: 6px;&quot;&gt;end process;&lt;/div&gt;&lt;div style=&quot;overflow-wrap: break-word; line-height: 100%; font-size: 6px;&quot;&gt;&lt;br style=&quot;font-size: 6px;&quot;&gt;&lt;/div&gt;&lt;div style=&quot;overflow-wrap: break-word; line-height: 100%; font-size: 6px;&quot;&gt;end behav1;&lt;/div&gt;&lt;div style=&quot;overflow-wrap: break-word; line-height: 100%; font-size: 6px;&quot;&gt;&lt;br style=&quot;font-size: 6px;&quot;&gt;&lt;/div&gt;&lt;div style=&quot;overflow-wrap: break-word; line-height: 100%; font-size: 6px;&quot;&gt;architecture behav2 of AND_ent is&lt;/div&gt;&lt;div style=&quot;overflow-wrap: break-word; line-height: 100%; font-size: 6px;&quot;&gt;begin&lt;/div&gt;&lt;div style=&quot;overflow-wrap: break-word; line-height: 100%; font-size: 6px;&quot;&gt;&lt;br style=&quot;font-size: 6px;&quot;&gt;&lt;/div&gt;&lt;div style=&quot;overflow-wrap: break-word; line-height: 100%; font-size: 6px;&quot;&gt;F &amp;lt;= x and y;&lt;/div&gt;&lt;div style=&quot;overflow-wrap: break-word; line-height: 100%; font-size: 6px;&quot;&gt;&lt;br style=&quot;font-size: 6px;&quot;&gt;&lt;/div&gt;&lt;div style=&quot;overflow-wrap: break-word; line-height: 100%; font-size: 6px;&quot;&gt;end behav2;&lt;/div&gt;&lt;div style=&quot;overflow-wrap: break-word; line-height: 100%; font-size: 6px;&quot;&gt;--------------------------------------------------&lt;/div&gt;&lt;/div&gt;" style="text;whiteSpace=wrap;html=1;fontColor=#000000;fontSize=6;textDirection=ltr;spacing=0;fontFamily=Times New Roman;verticalAlign=top;horizontal=1;strokeColor=default;" vertex="1" parent="1">
          <mxGeometry x="480" y="280" width="110" height="190" as="geometry" />
        </mxCell>
        <mxCell id="CzFrGwOpRJIVh9ln8tWY-7" value="&lt;div style=&quot;orphans: 2; text-align: start; text-indent: 0px; widows: 2; text-decoration-thickness: initial; text-decoration-style: initial; text-decoration-color: initial; overflow-wrap: break-word; line-height: 100%; font-size: 6px;&quot;&gt;-- VHDL code for 4:1 multiplexor&lt;br style=&quot;font-size: 6px;&quot;&gt;-- Multiplexor is a device to select different&lt;br style=&quot;font-size: 6px;&quot;&gt;-- inputs to outputs. we use 3 bits vector to &lt;br style=&quot;font-size: 6px;&quot;&gt;-- describe its I/O ports &lt;br style=&quot;font-size: 6px;&quot;&gt;-------------------------------------------------&lt;br style=&quot;font-size: 6px;&quot;&gt;entity Mux is&lt;br style=&quot;font-size: 6px;&quot;&gt;port(    I3:     in std_logic_vector(2 downto 0);&lt;br style=&quot;font-size: 6px;&quot;&gt;    I2:     in std_logic_vector(2 downto 0);&lt;br style=&quot;font-size: 6px;&quot;&gt;    I1:     in std_logic_vector(2 downto 0);&lt;br style=&quot;font-size: 6px;&quot;&gt;    I0:     in std_logic_vector(2 downto 0);&lt;br style=&quot;font-size: 6px;&quot;&gt;    S:    in std_logic_vector(1 downto 0);&lt;br style=&quot;font-size: 6px;&quot;&gt;    O:    out std_logic_vector(2 downto 0)&lt;br style=&quot;font-size: 6px;&quot;&gt;);&lt;br style=&quot;font-size: 6px;&quot;&gt;end Mux;  &lt;br style=&quot;font-size: 6px;&quot;&gt;-------------------------------------------------&lt;br style=&quot;font-size: 6px;&quot;&gt;&lt;br style=&quot;font-size: 6px;&quot;&gt;architecture behv1 of Mux is&lt;br style=&quot;font-size: 6px;&quot;&gt;begin&lt;br style=&quot;font-size: 6px;&quot;&gt;    process(I3,I2,I1,I0,S)&lt;br style=&quot;font-size: 6px;&quot;&gt;    begin&lt;br style=&quot;font-size: 6px;&quot;&gt;    &lt;br style=&quot;font-size: 6px;&quot;&gt;        -- use case statement&lt;br style=&quot;font-size: 6px;&quot;&gt;        case S is&lt;br style=&quot;font-size: 6px;&quot;&gt;        when &quot;00&quot; =&amp;gt;    O &amp;lt;= I0;&lt;br style=&quot;font-size: 6px;&quot;&gt;        when &quot;01&quot; =&amp;gt;    O &amp;lt;= I1;&lt;br style=&quot;font-size: 6px;&quot;&gt;        when &quot;10&quot; =&amp;gt;    O &amp;lt;= I2;&lt;br style=&quot;font-size: 6px;&quot;&gt;        when &quot;11&quot; =&amp;gt;    O &amp;lt;= I3;&lt;br style=&quot;font-size: 6px;&quot;&gt;        when others =&amp;gt;    O &amp;lt;= &quot;ZZZ&quot;;&lt;br style=&quot;font-size: 6px;&quot;&gt;    end case;&lt;br style=&quot;font-size: 6px;&quot;&gt;&lt;br style=&quot;font-size: 6px;&quot;&gt;    end process;&lt;br style=&quot;font-size: 6px;&quot;&gt;end behv1;&lt;br style=&quot;font-size: 6px;&quot;&gt;&lt;br style=&quot;font-size: 6px;&quot;&gt;architecture behv2 of Mux is&lt;br style=&quot;font-size: 6px;&quot;&gt;begin&lt;br style=&quot;font-size: 6px;&quot;&gt;&lt;br style=&quot;font-size: 6px;&quot;&gt;    -- use when.. else statement&lt;br style=&quot;font-size: 6px;&quot;&gt;    O &amp;lt;=    I0 when S=&quot;00&quot; else&lt;br style=&quot;font-size: 6px;&quot;&gt;        I1 when S=&quot;01&quot; else&lt;br style=&quot;font-size: 6px;&quot;&gt;        I2 when S=&quot;10&quot; else&lt;br style=&quot;font-size: 6px;&quot;&gt;        I3 when S=&quot;11&quot; else&lt;br style=&quot;font-size: 6px;&quot;&gt;        &quot;ZZZ&quot;;&lt;br style=&quot;font-size: 6px;&quot;&gt;&lt;br style=&quot;font-size: 6px;&quot;&gt;end behv2;&lt;br style=&quot;font-size: 6px;&quot;&gt;--------------------------------------------------&lt;br style=&quot;font-size: 6px;&quot;&gt;&lt;/div&gt;" style="text;whiteSpace=wrap;html=1;fontSize=6;fontColor=#000000;verticalAlign=top;horizontal=1;fontFamily=Times New Roman;textDirection=ltr;strokeColor=default;" vertex="1" parent="1">
          <mxGeometry width="120" height="280" as="geometry" />
        </mxCell>
        <mxCell id="CzFrGwOpRJIVh9ln8tWY-8" value="-- 2:4 Decoder (ESD figure 2.5)&#xa;-- decoder is a kind of inverse process&#xa;-- of multiplexor&#xa;-------------------------------------------------&#xa;entity DECODER is&#xa;port(    I:    in std_logic_vector(1 downto 0);&#xa;    O:    out std_logic_vector(3 downto 0)&#xa;);&#xa;end DECODER;&#xa;-------------------------------------------------&#xa;architecture behv of DECODER is&#xa;begin&#xa;    -- process statement&#xa;    process (I)&#xa;    begin&#xa;        -- use case statement &#xa;        case I is&#xa;        when &quot;00&quot; =&gt; O &lt;= &quot;0001&quot;;&#xa;        when &quot;01&quot; =&gt; O &lt;= &quot;0010&quot;;&#xa;        when &quot;10&quot; =&gt; O &lt;= &quot;0100&quot;;&#xa;        when &quot;11&quot; =&gt; O &lt;= &quot;1000&quot;;&#xa;        when others =&gt; O &lt;= &quot;XXXX&quot;;&#xa;    end case;&#xa;    end process;&#xa;end behv;&#xa;architecture when_else of DECODER is&#xa;begin&#xa;    -- use when..else statement&#xa;&#xa;    O &lt;=     &quot;0001&quot; when I = &quot;00&quot; else&#xa;        &quot;0010&quot; when I = &quot;01&quot; else&#xa;        &quot;0100&quot; when I = &quot;10&quot; else&#xa;        &quot;1000&quot; when I = &quot;11&quot; else&#xa;        &quot;XXXX&quot;;&#xa;&#xa;&#xa;end when_else;&#xa;--------------------------------------------------" style="text;whiteSpace=wrap;fontSize=6;verticalAlign=top;horizontal=1;fontFamily=Times New Roman;textDirection=ltr;strokeColor=default;" vertex="1" parent="1">
          <mxGeometry x="240" width="120" height="280" as="geometry" />
        </mxCell>
        <mxCell id="CzFrGwOpRJIVh9ln8tWY-9" value="-- VHDL code for n-bit adder (ESD figure 2.5)    &#xa;-- function of adder:A plus B to get n-bit sum &#xa;-- and 1 bit carry    &#xa;-- we may use generic statement to &#xa;-- set the parameter &#xa;-- n of the adder.                            &#xa;--------------------------------------------------------&#xa;library ieee;&#xa;use ieee.std_logic_1164.all;&#xa;use ieee.std_logic_arith.all;&#xa;use ieee.std_logic_unsigned.all;&#xa;--------------------------------------------------------&#xa;entity ADDER is&#xa;generic(n: natural :=2);&#xa;port(    A:    in std_logic_vector(n-1 downto 0);&#xa;    B:    in std_logic_vector(n-1 downto 0);&#xa;    carry:    out std_logic;&#xa;    sum:    out std_logic_vector(n-1 downto 0)&#xa;);&#xa;end ADDER;&#xa;--------------------------------------------------------&#xa;architecture behv of ADDER is&#xa;-- define a temparary signal to store the result&#xa;signal result: std_logic_vector(n downto 0);&#xa;begin                      &#xa;    -- the 3rd bit should be carry&#xa;   &#xa;    result &lt;= (&#39;0&#39; &amp; A)+(&#39;0&#39; &amp; B);&#xa;    sum &lt;= result(n-1 downto 0);&#xa;    carry &lt;= result(n);&#xa;end behv;&#xa;" style="text;whiteSpace=wrap;fontSize=6;fontFamily=Times New Roman;strokeColor=default;" vertex="1" parent="1">
          <mxGeometry y="280" width="130" height="230" as="geometry" />
        </mxCell>
        <mxCell id="CzFrGwOpRJIVh9ln8tWY-10" value="-- n-bit Comparator (ESD book figure 2.5)&#xa;-- this simple comparator has two n-bit inputs &amp; &#xa;-- three 1-bit outputs&#xa;--------------------------------------------------&#xa;entity Comparator is&#xa;generic(n: natural :=2);&#xa;port(    A:    in std_logic_vector(n-1 downto 0);&#xa;    B:    in std_logic_vector(n-1 downto 0);&#xa;    less:        out std_logic;&#xa;    equal:        out std_logic;&#xa;    greater:    out std_logic&#xa;);&#xa;end Comparator;&#xa;---------------------------------------------------&#xa;architecture behv of Comparator is&#xa;begin &#xa;    process(A,B)&#xa;    begin&#xa;        if (A&lt;B) then &#xa;        less &lt;= &#39;1&#39;;&#xa;        equal &lt;= &#39;0&#39;;&#xa;        greater &lt;= &#39;0&#39;;&#xa;    elsif (A=B) then   &#xa;        less &lt;= &#39;0&#39;;&#xa;        equal &lt;= &#39;1&#39;;&#xa;        greater &lt;= &#39;0&#39;;&#xa;    else &#xa;        less &lt;= &#39;0&#39;;&#xa;        equal &lt;= &#39;0&#39;;&#xa;        greater &lt;= &#39;1&#39;;&#xa;    end if;&#xa;    end process;&#xa;end behv;" style="text;whiteSpace=wrap;strokeColor=default;fontSize=6;fontFamily=Times New Roman;" vertex="1" parent="1">
          <mxGeometry x="120" width="120" height="280" as="geometry" />
        </mxCell>
        <mxCell id="CzFrGwOpRJIVh9ln8tWY-12" value="-- Simple ALU Module (ESD book Figure 2.5)        &#xa;-- ALU stands for arithmatic logic unit.&#xa;-- It perform multiple operations according to &#xa;-- the control bits.&#xa;-- we use 2&#39;s complement subraction in this example&#xa;-- two 2-bit inputs &amp; carry-bit ignored&#xa;---------------------------------------------------&#xa;--same libraries as the n-bit adder&#xa;---------------------------------------------------&#xa;entity ALU is&#xa;port(    A:    in std_logic_vector(1 downto 0);&#xa;    B:    in std_logic_vector(1 downto 0);&#xa;    Sel:    in std_logic_vector(1 downto 0);&#xa;    Res:    out std_logic_vector(1 downto 0)  &#xa;);&#xa;end ALU;&#xa;---------------------------------------------------&#xa;architecture behv of ALU is&#xa;begin                       &#xa;    process(A,B,Sel)&#xa;    begin&#xa;    -- use case statement to achieve &#xa;    -- different operations of ALU&#xa;    case Sel is&#xa;        when &quot;00&quot; =&gt;&#xa;        Res &lt;= A + B;&#xa;        when &quot;01&quot; =&gt;                        &#xa;            Res &lt;= A + (not B) + 1;&#xa;            when &quot;10&quot; =&gt;&#xa;        Res &lt;= A and B;&#xa;        when &quot;11&quot; =&gt;     &#xa;        Res &lt;= A or B;&#xa;        when others =&gt;     &#xa;        Res &lt;= &quot;XX&quot;;&#xa;        end case;&#xa;    end process;&#xa;end behv;" style="text;whiteSpace=wrap;fontSize=6;fontFamily=Times New Roman;strokeColor=default;strokeWidth=1;" vertex="1" parent="1">
          <mxGeometry x="360" width="140" height="280" as="geometry" />
        </mxCell>
        <mxCell id="CzFrGwOpRJIVh9ln8tWY-13" value="" style="endArrow=none;html=1;rounded=0;entryX=0;entryY=1;entryDx=0;entryDy=0;exitX=1;exitY=0;exitDx=0;exitDy=0;fontSize=6;fontFamily=Times New Roman;" edge="1" parent="1" source="CzFrGwOpRJIVh9ln8tWY-9" target="CzFrGwOpRJIVh9ln8tWY-7">
          <mxGeometry width="50" height="50" relative="1" as="geometry">
            <mxPoint x="140" y="300" as="sourcePoint" />
            <mxPoint x="190" y="250" as="targetPoint" />
          </mxGeometry>
        </mxCell>
        <mxCell id="CzFrGwOpRJIVh9ln8tWY-14" value="-- Example of doing multiplication showing&#xa;-- (1) how to use variable with in process&#xa;-- (2) how to use for loop statement&#xa;-- (3) algorithm of multiplication&#xa;--------------------------------------------------------&#xa;--same libraries as the n bit adder&#xa;--------------------------------------------------------&#xa;-- two 4-bit inputs and one 8-bit outputs&#xa;entity multiplier is&#xa;port(    num1, num2:    in std_logic_vector(1 downto 0);&#xa;    product:     out std_logic_vector(3 downto 0)&#xa;);&#xa;end multiplier;&#xa;&#xa;architecture behv of multiplier is&#xa;&#xa;begin&#xa;process(num1, num2)&#xa;  variable num1_reg: std_logic_vector(2 downto 0);&#xa;  variable product_reg: std_logic_vector(5 downto 0);&#xa;begin     &#xa;  num1_reg := &#39;0&#39; &amp; num1;&#xa;  product_reg := &quot;0000&quot; &amp; num2;&#xa;  -- use variables doing computation&#xa;  -- algorithm is to repeat shifting/adding&#xa;  for i in 1 to 3 loop&#xa;    if product_reg(0)=&#39;1&#39; then&#xa;      product_reg(5 downto 3) := product_reg(5 downto 3) &#xa;      + num1_reg(2 downto 0);&#xa;    end if;&#xa;    product_reg(5 downto 0) := &#39;0&#39; &amp; product_reg(5 downto 1);&#xa;  end loop;&#xa;  -- assign the result of computation back to output signal&#xa;  product &lt;= product_reg(3 downto 0);&#xa;end process;&#xa;end behv;" style="text;whiteSpace=wrap;fontSize=6;fontFamily=Times New Roman;strokeColor=default;" vertex="1" parent="1">
          <mxGeometry x="500" width="160" height="280" as="geometry" />
        </mxCell>
        <mxCell id="CzFrGwOpRJIVh9ln8tWY-15" value="-- Simple D Latch (ESD book Chapter 2.3.1)&#xa;-- latch is simply controlled by enable bit&#xa;-- but has nothing to do with clock sigal&#xa;-- notice this difference from flip-flops&#xa;--------------------------------------------&#xa;entity D_latch is&#xa;port(    data_in:    in std_logic;&#xa;    enable:        in std_logic;&#xa;    data_out:    out std_logic&#xa;);&#xa;end D_latch;&#xa;--------------------------------------------&#xa;architecture behv of D_latch is&#xa;begin        &#xa;    -- compare this to D flipflop&#xa;    process(data_in, enable)&#xa;    begin&#xa;        if (enable=&#39;1&#39;) then&#xa;            -- no clock signal here&#xa;        data_out &lt;= data_in;  &#xa;    end if;&#xa;    end process;    &#xa;    &#xa;end behv;" style="text;whiteSpace=wrap;strokeColor=default;fontSize=6;fontFamily=Times New Roman;" vertex="1" parent="1">
          <mxGeometry x="360" y="280" width="120" height="190" as="geometry" />
        </mxCell>
        <mxCell id="CzFrGwOpRJIVh9ln8tWY-18" value="-- D Flip-Flop (ESD book Chapter 2.3.1)&#xa;-- Flip-flop is the basic component in &#xa;-- sequential logic design&#xa;-- we assign input signal to the output &#xa;-- at the clock rising edge &#xa;---------------------------------------------&#xa;library ieee ;&#xa;use ieee.std_logic_1164.all;&#xa;use work.all;&#xa;---------------------------------------------&#xa;entity dff is&#xa;port(    data_in:    in std_logic;&#xa;    clock:        in std_logic;&#xa;    data_out:    out std_logic&#xa;);&#xa;end dff;&#xa;----------------------------------------------&#xa;architecture behv of dff is&#xa;begin&#xa;&#xa;&#xa;    process(data_in, clock)&#xa;    begin&#xa;&#xa;&#xa;        -- clock rising edge&#xa;&#xa;&#xa;    if (clock=&#39;1&#39; and clock&#39;event) then&#xa;        data_out &lt;= data_in;&#xa;    end if;&#xa;&#xa;&#xa;    end process;    &#xa;&#xa;&#xa;end behv;" style="text;whiteSpace=wrap;strokeColor=default;fontSize=6;fontFamily=Times New Roman;" vertex="1" parent="1">
          <mxGeometry x="660" width="110" height="280" as="geometry" />
        </mxCell>
        <mxCell id="CzFrGwOpRJIVh9ln8tWY-19" value="----------------------------------------------&#xa;-- JK Flip-Flop with reset &#xa;-- the description of JK Flip-Flop is based &#xa;-- on functional truth table&#xa;-- concurrent statement and signal assignment&#xa;-- are using in this example &#xa;----------------------------------------------&#xa;entity JK_FF is&#xa;port (    clock:        in std_logic;&#xa;    J, K:        in std_logic;&#xa;    reset:        in std_logic;&#xa;    Q, Qbar:    out std_logic&#xa;);&#xa;end JK_FF;&#xa;----------------------------------------------&#xa;architecture behv of JK_FF is&#xa;    -- define the useful signals here&#xa;    signal state: std_logic;&#xa;    signal input: std_logic_vector(1 downto 0);&#xa;begin&#xa;    -- combine inputs into vector&#xa;    input &lt;= J &amp; K;        &#xa;    p: process(clock, reset) is&#xa;    begin&#xa;    &#xa;    if (reset=&#39;1&#39;) then&#xa;        state &lt;= &#39;0&#39;;&#xa;    elsif (rising_edge(clock)) then&#xa;            -- compare to the truth table&#xa;        case (input) is&#xa;        when &quot;11&quot; =&gt;&#xa;            state &lt;= not state;&#xa;        when &quot;10&quot; =&gt;&#xa;            state &lt;= &#39;1&#39;;&#xa;        when &quot;01&quot; =&gt;&#xa;            state &lt;= &#39;0&#39;;&#xa;        when others =&gt;&#xa;            null;&#xa;        end case;&#xa;    end if;&#xa;    end process;&#xa;    &#xa;    -- concurrent statements&#xa;    Q &lt;= state;&#xa;    Qbar &lt;= not state;&#xa;end behv;" style="text;whiteSpace=wrap;fontFamily=Times New Roman;fontSize=6;strokeColor=default;" vertex="1" parent="1">
          <mxGeometry y="510" width="160" height="340" as="geometry" />
        </mxCell>
        <mxCell id="CzFrGwOpRJIVh9ln8tWY-20" value="-- n-bit Register (ESD book figure 2.6)&#xa;-- KEY WORD: concurrent, generic and range&#xa;---------------------------------------------------&#xa;library ieee ;&#xa;use ieee.std_logic_1164.all;&#xa;use ieee.std_logic_unsigned.all;&#xa;---------------------------------------------------&#xa;entity reg is&#xa;generic(n: natural :=2);&#xa;port(    I:    in std_logic_vector(n-1 downto 0);&#xa;    clock:    in std_logic;&#xa;    load:    in std_logic;&#xa;    clear:    in std_logic;&#xa;    Q:    out std_logic_vector(n-1 downto 0)&#xa;);&#xa;end reg;&#xa;----------------------------------------------------&#xa;architecture behv of reg is&#xa;&#xa;&#xa;    signal Q_tmp: std_logic_vector(n-1 downto 0);&#xa;begin&#xa;&#xa;&#xa;    process(I, clock, load, clear)&#xa;    begin&#xa;&#xa;&#xa;    if clear = &#39;0&#39; then&#xa;            -- use &#39;range in signal assigment &#xa;            Q_tmp &lt;= (Q_tmp&#39;range =&gt; &#39;0&#39;);&#xa;    elsif (clock=&#39;1&#39; and clock&#39;event) then&#xa;        if load = &#39;1&#39; then&#xa;        Q_tmp &lt;= I;&#xa;        end if;&#xa;    end if;&#xa;&#xa;&#xa;    end process;&#xa;&#xa;&#xa;    -- concurrent statement&#xa;    Q &lt;= Q_tmp;&#xa;&#xa;&#xa;end behv;" style="text;whiteSpace=wrap;strokeColor=default;fontSize=6;fontFamily=Times New Roman;" vertex="1" parent="1">
          <mxGeometry x="160" y="510" width="130" height="340" as="geometry" />
        </mxCell>
        <mxCell id="CzFrGwOpRJIVh9ln8tWY-21" value="-- 3-bit Shift-Register/Shifter&#xa;-- reset is ignored according to the figure&#xa;---------------------------------------------------&#xa;entity shift_reg is&#xa;port(    I:        in std_logic;&#xa;    clock:        in std_logic;&#xa;    shift:        in std_logic;&#xa;    Q:        out std_logic&#xa;);&#xa;end shift_reg;&#xa;---------------------------------------------------&#xa;architecture behv of shift_reg is&#xa;    -- initialize the declared signal&#xa;    signal S: std_logic_vector(2 downto 0):=&quot;111&quot;;&#xa;begin  &#xa;    process(I, clock, shift, S)&#xa;    begin&#xa;    -- everything happens upon the clock changing&#xa;    if clock&#39;event and clock=&#39;1&#39; then&#xa;        if shift = &#39;1&#39; then&#xa;        S &lt;= I &amp; S(2 downto 1);&#xa;        end if;&#xa;    end if;&#xa;    end process;&#xa;    -- concurrent assignment&#xa;    Q &lt;= S(0);&#xa;end behv;" style="text;whiteSpace=wrap;fontSize=6;fontFamily=Times New Roman;strokeColor=default;" vertex="1" parent="1">
          <mxGeometry x="130" y="280" width="140" height="200" as="geometry" />
        </mxCell>
        <mxCell id="CzFrGwOpRJIVh9ln8tWY-22" value="-- VHDL code for n-bit counter (ESD figure 2.6)&#xa;-- this is the behavior description of n-bit counter&#xa;-- another way can be used is FSM model. &#xa;---------------------------------------------------&#xa;library ieee ;&#xa;use ieee.std_logic_1164.all;&#xa;use ieee.std_logic_unsigned.all;&#xa;----------------------------------------------------&#xa;entity counter is&#xa;generic(n: natural :=2);&#xa;port(    clock:    in std_logic;&#xa;    clear:    in std_logic;&#xa;    count:    in std_logic;&#xa;    Q:    out std_logic_vector(n-1 downto 0)&#xa;);&#xa;end counter;&#xa;----------------------------------------------------&#xa;architecture behv of counter is               &#xa;    signal Pre_Q: std_logic_vector(n-1 downto 0);&#xa;begin&#xa;    -- behavior describe the counter&#xa;&#xa;&#xa;    process(clock, count, clear)&#xa;    begin&#xa;    if clear = &#39;1&#39; then&#xa;         Pre_Q &lt;= Pre_Q - Pre_Q;&#xa;    elsif (clock=&#39;1&#39; and clock&#39;event) then&#xa;        if count = &#39;1&#39; then&#xa;        Pre_Q &lt;= Pre_Q + 1;&#xa;        end if;&#xa;    end if;&#xa;    end process;    &#xa;    &#xa;    -- concurrent assignment statement&#xa;    Q &lt;= Pre_Q;&#xa;end behv;" style="text;whiteSpace=wrap;strokeColor=default;fontSize=6;fontFamily=Times New Roman;" vertex="1" parent="1">
          <mxGeometry x="290" y="510" width="140" height="280" as="geometry" />
        </mxCell>
        <mxCell id="CzFrGwOpRJIVh9ln8tWY-25" value="if no library mentioned its library ieee ;&#xa;use ieee.std_logic_1164.all;" style="text;whiteSpace=wrap;fontSize=6;fontFamily=Times New Roman;textDirection=ltr;labelBorderColor=none;horizontal=1;spacing=0;spacingTop=-3;spacingBottom=0;strokeColor=default;" vertex="1" parent="1">
          <mxGeometry x="130" y="480" width="140" height="30" as="geometry" />
        </mxCell>
        <mxCell id="CzFrGwOpRJIVh9ln8tWY-26" value="-- a simple 4*4 RAM module (ESD book Chapter 5) &#xa;-- KEYWORD: array, concurrent processes, generic, conv_integer &#xa;--------------------------------------------------------------&#xa;library ieee;&#xa;use ieee.std_logic_1164.all;&#xa;use ieee.std_logic_arith.all;&#xa;use ieee.std_logic_unsigned.all;&#xa;--------------------------------------------------------------&#xa;entity SRAM is&#xa;generic(    width:    integer:=4;&#xa;        depth:    integer:=4;&#xa;        addr:    integer:=2);&#xa;port(    Clock:        in std_logic;    &#xa;    Enable:        in std_logic;&#xa;    Read:        in std_logic;&#xa;    Write:        in std_logic;&#xa;    Read_Addr:    in std_logic_vector(addr-1 downto 0);&#xa;    Write_Addr:     in std_logic_vector(addr-1 downto 0); &#xa;    Data_in:     in std_logic_vector(width-1 downto 0);&#xa;    Data_out:     out std_logic_vector(width-1 downto 0)&#xa;);&#xa;end SRAM;&#xa;--------------------------------------------------------------&#xa;architecture behav of SRAM is&#xa;-- use array to define the bunch of internal temparary signals&#xa;type ram_type is array (0 to depth-1) of &#xa;    std_logic_vector(width-1 downto 0);&#xa;signal tmp_ram: ram_type;&#xa;begin               &#xa;    -- Read Functional Section&#xa;    process(Clock, Read)&#xa;    begin&#xa;    if (Clock&#39;event and Clock=&#39;1&#39;) then&#xa;        if Enable=&#39;1&#39; then&#xa;        if Read=&#39;1&#39; then&#xa;            -- buildin function conv_integer change the type&#xa;            -- from std_logic_vector to integer&#xa;            Data_out &lt;= tmp_ram(conv_integer(Read_Addr)); &#xa;        else&#xa;            Data_out &lt;= (Data_out&#39;range =&gt; &#39;Z&#39;);&#xa;        end if;&#xa;        end if;&#xa;    end if;&#xa;    end process;&#xa;     -- Write Functional Section&#xa;    process(Clock, Write)&#xa;    begin&#xa;    if (Clock&#39;event and Clock=&#39;1&#39;) then&#xa;        if Enable=&#39;1&#39; then&#xa;        if Write=&#39;1&#39; then&#xa;            tmp_ram(conv_integer(Write_Addr)) &lt;= Data_in;&#xa;        end if;&#xa;        end if;&#xa;    end if;&#xa;    end process;&#xa;end behav;" style="text;whiteSpace=wrap;strokeColor=default;fontSize=6;fontFamily=Times New Roman;" vertex="1" parent="1">
          <mxGeometry x="430" y="510" width="180" height="420" as="geometry" />
        </mxCell>
        <mxCell id="CzFrGwOpRJIVh9ln8tWY-27" value="-- 32*8 ROM module (ESD Book Chapter 5)&#xa;-- ROM model has predefined content for read only purpose&#xa;--------------------------------------------------------------&#xa;--libraries same as n bit adder&#xa;entity ROM is&#xa;port(    Clock   : in std_logic;&#xa;    Reset    : in std_logic;    &#xa;    Enable    : in std_logic;&#xa;    Read    : in std_logic;&#xa;    Address    : in std_logic_vector(4 downto 0);&#xa;    Data_out: out std_logic_vector(7 downto 0)&#xa;);&#xa;end ROM;&#xa;--------------------------------------------------------------&#xa;architecture Behav of ROM is&#xa;    type ROM_Array is array (0 to 31) &#xa;    of std_logic_vector(7 downto 0);&#xa;&#xa;&#xa;    constant Content: ROM_Array := (&#xa;        0 =&gt; &quot;00000001&quot;,        -- Suppose ROM has &#xa;        1 =&gt; &quot;00000010&quot;,        -- prestored value&#xa;        2 =&gt; &quot;00000011&quot;,        -- like this table&#xa;        3 =&gt; &quot;00000100&quot;,               --&#xa;        4 =&gt; &quot;00000101&quot;,        --&#xa;        5 =&gt; &quot;00000110&quot;,               --&#xa;        6 =&gt; &quot;00000111&quot;,        --&#xa;        7 =&gt; &quot;00001000&quot;,               --&#xa;        8 =&gt; &quot;00001001&quot;,               --&#xa;        9 =&gt; &quot;00001010&quot;,               --&#xa;        10 =&gt; &quot;00001011&quot;,        --&#xa;    11 =&gt; &quot;00001100&quot;,           --&#xa;        12 =&gt; &quot;00001101&quot;,              --&#xa;        13 =&gt; &quot;00001110&quot;,        --&#xa;    14 =&gt; &quot;00001111&quot;,        --&#xa;    OTHERS =&gt; &quot;11111111&quot;        --&#xa;    );       &#xa;begin&#xa;    process(Clock, Reset, Read, Address)&#xa;    begin&#xa;        if( Reset = &#39;1&#39; ) then&#xa;        Data_out &lt;= &quot;ZZZZZZZZ&quot;;&#xa;        elsif( Clock&#39;event and Clock = &#39;1&#39; ) then&#xa;        if Enable = &#39;1&#39; then&#xa;        if( Read = &#39;1&#39; ) then&#xa;            Data_out &lt;= Content(conv_integer(Address));&#xa;                else&#xa;                    Data_out &lt;= &quot;ZZZZZZZZ&quot;;&#xa;                end if;&#xa;        end if;&#xa;        end if;&#xa;    end process;&#xa;end Behav;" style="text;whiteSpace=wrap;fontFamily=Times New Roman;fontSize=6;strokeColor=default;" vertex="1" parent="1">
          <mxGeometry x="610" y="510" width="160" height="390" as="geometry" />
        </mxCell>
        <mxCell id="CzFrGwOpRJIVh9ln8tWY-28" value="Identifier May contain A-Z, a-z, 0-9, _&#xa; ,Must start with letter May not end with _ &#xa;,May not include two consecutive _&#xa;,VHDL is case insensitive" style="text;whiteSpace=wrap;strokeColor=default;fontSize=6;fontFamily=Times New Roman;" vertex="1" parent="1">
          <mxGeometry x="270" y="470" width="120" height="40" as="geometry" />
        </mxCell>
        <mxCell id="CzFrGwOpRJIVh9ln8tWY-29" value="Predefined &#xa;Bit&#xa;,Integer&#xa;,Real&#xa;,Boolean,&#xa;STD_LOGIC&#xa;user-defined" style="text;whiteSpace=wrap;fontSize=6;fontFamily=Times New Roman;strokeColor=default;" vertex="1" parent="1">
          <mxGeometry x="770" width="35" height="65" as="geometry" />
        </mxCell>
        <mxCell id="CzFrGwOpRJIVh9ln8tWY-30" value="Bit versus STD_LOGIC,BIT type can only have a value of ‘0’ or ‘1’,STD_LOGIC can have eight values,‘U’, ‘0’,’1’,’X’,’Z’,’W’,’L’,’H’,’-’,Useful mainly for simulation &#xa;‘0’,’1’, and ‘Z’ are synthesizable (your codes should contain only these three values)" style="text;whiteSpace=wrap;strokeColor=default;fontSize=6;fontFamily=Times New Roman;" vertex="1" parent="1">
          <mxGeometry x="390" y="470" width="220" height="40" as="geometry" />
        </mxCell>
        <mxCell id="CzFrGwOpRJIVh9ln8tWY-31" value="" style="shape=image;verticalLabelPosition=bottom;labelBackgroundColor=default;verticalAlign=top;aspect=fixed;imageAspect=0;image=data:image/png,iVBORw0KGgoAAAANSUhEUgAAAakAAAFxCAYAAADJQVcZAAAAAXNSR0IArs4c6QAAAARnQU1BAACxjwv8YQUAAAAJcEhZcwAADsMAAA7DAcdvqGQAAJIwSURBVHhe7N0JQE1p/wfw711atJBSWhQSIfsyyAzZZd9lnxnGvg1jmQURY2yvnSRKFLJLZYkspahERdlaaJU2JS333vM/996jhaKZKV3z/33mvW+d55x77u885zzP7zznnC4ewwIhhBCigHibN29mjh8/jgYNGqB+/fpcMflQUlIS3rx5A3Nzc66EEEJIVQoMDASvV69ezNWrV7kiQgghRHHwZsyYwezbtw/9+vWTvUjZpBk9Li4OY8eO5UoIIYRUpTVr1oBnZ2fHrFixAra2tli1ahU3i3zI0dFRlqikPwkhhFQ9ExMT8LnfCSGEEIVDSYoQQojCoiRFCCFEYVGSIoQQorCqIEkxSH+QgR1/JsHOLglr17/Cset5yJDI5yXcyYD9Brb8r1T4xJX9d8SiF9nYv5F9/9pknHxIf2tM/psKEnPhcTAFa9l2Im0r9tcKIGsmRRi8uPQK66Tz1yZhm0sWwlKqpj1IErNgNzUWK8/lQ8yVEaIIqiBJ8aDdWhOm0a+xemUiVh8uQANLVdSWfRIPRp1qoVFcJu7VqQmr+jzZOz4kNFGDRlAKVq1MwtEHlKTIf5OyoRqsO4hxxi6RPdYTMX/Ja4SLuJlSolzsX5GAtasSsXLNG0i61USrumW3mX8r1y8N/3NOw3bnHLzhyghRBFV0uU+I/gvqoK0y286eZuFsaInzQ3EBHirVhu33KuxS5eFBTY3H/j8h/208DQE6fKeOOmxLLAxLx0H/4raSezMD8c1qoq60lfL5qKVVdS1CY6Qxblwyww17bdTmyghRBFWUpNg0ZaGDn3oJwBPlwXX/G2Rz5QX3MpH2jQ5asBlKkvEOFw6/xrYVL7BgdRqC0ssaNTFIC8mAo30q9jpk4uHbQtxxT4X93lQ4eOeh6MRTXAg/5xSst0vCDs985HHFhCi6mr11MdmcPSkT5cPdMQuZslIRLnky6DNMqcxGKk7KgfMW6WXCV/B8XpzYym5TDDLDM3FQ1oYyEBqTg4MrX2D+qjTcz2JnF+Tj5rFM3H5agOD7+RBLRAg//1rexs7kIibwNVbOf4FVR3IhXVwmLx+Xdidg6R+J+HNDCvawy0rbZ9j7hk5IJamyJAW+Msb8VAv6AiDx1Gu4J0obiwheFxhYSRteehbmWz6BfV4tzJ2qgvt/xqLvuFTEfHRBnAcdCx4C1rzA7HmvcDNHCAs25f02l21k9m/lyUicD+dxUZh4VRnTZqvg9rTHmHDow+v7hCgoJTXMnKkBdXaglOKRhhNsW5EkZ+GWuhYGaHHLlCCOfo1xXWNwtUEdzG6Sg2ndY3DoBdu+ym1TPGg1EeD+JrYNzX6BGWuzkf36LRzt4mCzNgcFyipoJXmDpXNeYKFDLvL5QjSpmYtN89jlZ8Vh7VUxXt9+Dbsfo7H2NtuqxHmwHxmFQSvz0Gp+XVgmpGLBghT45wugzrZ3QipT1SUpltYAXYw3Y8/ust5g38E85Edn4E5tLXRXZ9PV8xzceC5CwA22kegpoQ47ssp++A6PS16Tf4/HHvw1uN9ZQg0+VLnfpfJvpGD16UI07qIBnVo10NRQhAsO6YimO8Dkq8BDg0m6GKbPjnnevIHT4Tw8O/0OhqM1UOKw50hw439JOJ2ggi5dhajVXBWGr7LgcCz/021KwIeGGpsF2ZPHgQv1MXOEOnT5DGKj8vCOna1ak21TJa4mCthso8b2DnyjWli4TBcjvmFPLEUFiHrMQByTCZcrIvBMaqCFtgAtW6pAUFiAJ2+EaKDGrYCQSlKlSQoq6pj2ozqbUBiEOr/CLnZ003ysquxelLCjATz9m+DkWBFs579GWCHbQCVsA/jbz0kwSLj3DgnsG2Muv8JfmzLBH1QXy0aogk7qyNeCV5sd/UxRhRJ7PAcdTMS6OFWMtSjjHpS4EPceFEIsKcDlHcnY5AEMWqaPEc15FWxT0vu97A9pApJOFjIokP4sTw0+ZLlNGgq7nsJCCQR1VGCqzU7mSpDLrj8nRwKGL0ADUyVqc6TSVW2SYhtEk8l10E+LHTlFp2Hvaw0MN+AaHtvYglziMXZBDtot0UErZbasvATFvoVXRnt9T8BmPdns+jXxy68GWLnaCGsWa6EhtRjy1eCjwwxddNdg28qzt2A6acG4rNbJHuhC7riu368ufv3NEKvtDLF4kMrfa1P/lHR9WlrYcswIg5CJlYsSsPyMBIPXNMSOsdLTT0IqVxUnKfYD9Gtj+gj2DEupBibPqAm2Dcq89UjE7D25UO2ng2HaDN5xN5Det6n3/xSj7AefD03pBXt2qoA97UtLKJRdopDP5MGgizrMlIDY069xLklaKELAhWwk0U0p8hURNNDGHLatKJmxbWYg1+GzhzPXFORtgq+ELp1VoCTOx+n9WfJjPDMHF3wLP9um3pOt5/1638/kpj/6J1Dfl8unuJ8MUh+xiXRCQ5zfYYSjN5vh5O81oV/lvQn5/+gLHFYC9J6hA8uBupjWong4JKgpRE32jDDhVBJ+PyVGHWMemLQcHDuTj9wX2bgWIWYbDIMo3yw8K6iBgcNqQFP0Fv8bG40/b0tklxXEz3JwLY6Bcse62LJQDbWS0/H9N1HoOyIBIXXUYECNhiiwgoS3OOGYhbMer3HcPx9vIcSAubr4cXoddGEHRtnPc3Dq7Fu8kiYbUR4uyf6Yl4eOi+phYUcBkt1i8U2nJxixNBd12rEnguW2qTy8isjBvWQ2xUgKEOT3DiF+uUhj1yuOYdtQZB6uXX2HN+zswqhsXHpWgIibuUgWs4u/eAu/sFz4PRBBwianmNvZeJ79Fg5bMnHlUDwmsO1x1KhoTJqRgL03CukPgUml+zL/VIdEhFdpfOjplswaDDKe5eKFkipa1hdAkpqH0HgemrZWgWaZyUWCpIh3SK2tilZGZV3HY5D94h0eJvNQv0UNGFTyDVz6pzqIQpGI8SL8HZKVVNCiuRLkh/vfbVP/ENueryx5gpHb3iG7xNUKvpYWXJ43wgRtroCQf+nL/VMdfOEHCUqKh9pm6mjNNibpHKGuKjq2/VRj4sOghXo5CUqKB00TNXT+pvITFCEKhy+ASWsNfFOUoKT+bpv6ZySvs3HsAg/fn22OmLgWiHlmgbvudWDBNk3J++uChFSSSj58CSH/dXwNZbRuw0fk6QycuvAGly5m4WooH8Md6mGcDrcQIZWEkhQh5O9RU8f84+a4ckAf08bWxtipelj+pzFWj/jUV50R8s9QkiKE/DPS7xPUEUKr5F8BE1LJKEkRQghRWLwRI0Ywp0+fhrGxsexFypaSkoLs7GyYmZlxJYQQQqpScHAweL/88guzefNm/Pjjj7IXKZuHhwcePnyI5cuXcyWEEEKqEjuI+kJ/J/UfQH8nRQghX9aX+zspQggh5B+gJEUIIURhUZIihBCisChJEUIIUViUpAghhCgsSlKEEEIUFiUpQgghCouSFCGEEIVFSYoQQojCoiRFCCFEYQl69uxp6+vrCysrK9nrSxElhyA4RQdG2mI8u3QAB49fxNUbN3DLPxQvlOqjRT11pD84BxeXk/D2DcDDNzpo3kQXwsz7OHHwEtKNWqJ+Zf+To59w7949xMfHY8iQIVxJsZzHl3DksDs8fa7jxs2buFn08sNjNEH7Bhrckv9WAQLs+mDMGT2M7d8YKlxpZZFkhOD0sXAoW5hBW8Bu1xMfHD1yCldDYpGtqoW8l3FQ0q+LGgr4LzPkv7wF5z8XYf5JYPTgFmXWTUGAHfqMOQO9sf3RuLIrT/QEno5XkGXaHEZlVZAkBSFnj+LoaW9cvXkb4S9E0G7UANrKgDjxDk66HsWZi34Ie8GDvoUJapVzaOc89sRu20VYdqkmxlk3oX+/ifynbd26tXpGUpKks9hy6DXqNZD2FCow6/cDxrbOwPkttrC7wkO3bwzYwPjQaW0F7fBTuKfZAzYDmkGdXbowYA8WL5yKIXNckSZbW/XTMO+HCd+k48jag0hsPxPz5s3DvNlTMKBBHC5eieaWqgxCmA+aiwWj2sjqojJJ0q9j3e8+MBjVD2bKEqR6LYD1TE8ofTMQ1u1UEWzbG13ne+FV0T8Pno8XsYkQc1PVTs0ImqnBCE3MhYQr+pDQfBDmLhiFNpVdeVLCJrAeWQcei1fDN72MCPh10X7oUGgFboCdaxrajbaCGReHwLATRg1Rg/9VCXrbdIUJe4JQHlXj9jDODkVEyrtyt5OQ/5JqSVIZnm64FBuF60GvuIamDONBG3Fs4wBo3d6DDVcy2DJpR7kOHo13w2XBN9DmIlWxdkBM6lFMMlJXqLNIYZ06qM3nQ0mtJrS0tKClY4L2E/7CqlH63BKVgQ/ttiNg8600iVciSRo8l69CwsDZsNSUTifh+BYXaE1ahfFdmqN5l5H4/agbFrVWwvsxguiJI37bHoJCbrq6qbD13by+7ifrha/dFiNsvoVBFR31fJ3eWDQ8ESuWeiCtrAzCrwXDujXB19WHwQcHL19bH0am9WHymYNaqKYNI72aRfuBkP+6aklSmq1bI+/YUix3CkEBV8aeT6LR1F3YOPANDsxfAe9QZ/x2qhF+/80S0n6zSP5jeB9MRO9FQ1GLK1JIonDcfaCC1m1MuYICpIR6wc35MM7ejsNbrlQqPykIXn4xyH52Fe6e4ciUdXB5SLh7DkcOucE7LLVoxJKfeJddNpabzkfiHW/4x4mQ/fgqjrl6IKzUWXwuYv3P4Mjh47gUnlbuqEf0aC/WXTHDoB7va1oJ6uoSXN+2DMcf58qLVNrAZvK3qMX2jtlhzvhpxDJcCLoMR4fzCH+bj6QgL/jFZOPZVXd4hmfKTz4KUhDq5Qbnw2dxO67UFldK3DIFyQi94AoX95t4WXwwSSsVQV5+iMl+hqvungiXVmp+Iu6yZbFiCVLuHIeD/V7YO7jA5xm7jZJMPPR0xr797riTIo8lJ/oWTh1ygpt3ONKKdwDuePsjTpSNx1ePwdUjDCVD1+ozDE191mF3hIgr+QCPV06CYUuLZny6fnjsOuTESLh1BPvs7eHgchGROdLw7sDbPw6i7Me4eswVHmHppUZcBSmh8HJzxuGztyHfJRIk+bvJ1mHvdAVPMp/givM+2O+1x373O0iWiPHSz5WtqwO49Izdps9sPyGVTvpPdbA/GFtbW+aLys9nCrlfSxK/OMyMMlRiNBtPYdwSxFxp9du/fz8zdepUbupjoqj1TGcVA2bInyeY06dPME4rhjBTHV/LZ4pfMd5LhzKTtlxlwh9eZbYMNWcsfjjKxIjEzKugg8zUVmqMVo8ZzPKJ3ZmGRiMYl+QXzOmFNsxCl7vMs/ADzGhjI2aY4zMmiV32BwsVps6kM8w7dp13D37PWKjqML1n/cr8NG06M75TXUarzy7muUj6mWnM5V++YwauD2XeZNxl7LrXYbRb9mO+//MykyaPilPIhK1qx6j32MHEl6jut6HbGGsjJYav0YQZtNyVuZ9ePPPdq8eM25T6jN5IByY8MpS55jiVaaWmxfSYsZyZ2L0hYzTChUl+5c0sHTqJ2XI1nHl4dQsz1NyC+eFoDCOqtLhZmbeYNUOGML+dfcA8vLWbsTFTYVQHHWTSXwUxB6e2YtS0ejAzlk9kujc0Yobvuswc/MGCUakziTnzjn2v6AVzZLQho9pzJ/P+MMv3W8H8sCmcyWdETPTRJcys9acZf7/TjG0/Y6b+SCfmWdJd5uD3FoyqTm9m1q8/MdOmj2c61dVi+ux6zr6DI45ndvRQY9qsDOUKSspjvKYZMarfbWaii97AeXeKPb5cmbefqx82uoAlzRjtse7MW3bfxTj/yAyef5R5lMMeS3cPMt9bqDI6vWcxv/40jZk+vhNTV6sPs0tescwr76XM0ElbmKvhD5mrW4Yy5hY/MEdj2Hnvwph1XTUZswU32LWz+z54JdNevSXze5C8hYoT9jDf/+jOxFdk+wmpRMbGxkz1JalyvWZO/WDCKCs1YeZczuDKqt/fS1InGRe70cyMA/Ik9e7aPKaJxRLmtrQHYIkTHBhrLQNm0ulMdiqfuT7fjKnZaycTy3WW2R5TmcYDHZgU2fRbJmjfImblKbaDZzu5a3NMGT1pkpLOyvNl5ppqM4P2J7BdkLSTXcQ00RrNHHvLTrx2ZAbWasusvC/vaFLs+zLqFsuZOx+dGWQyh4ZqMNoTTsnXWYIo6RazYyrb0SnxGCWDb5mFJ57JOjFpZ+s7z4wxmHJO/p7868x8s5pMr52xsjjYLWauzWvCWCy5zS0vZhIcrBktg0mMbJMrJe585s5vbZhmbMeaJ5suZO7+asGos0lKVqvX5zNmNXsxO99XKivv2hzGVI9LUqzCeyuYNrV7M7tipMu8ZXxX/8a4S3fZWy9mequezM879zB79uxhdszqzGjW6MKsj2T3gO9cxlR7ELNfltnyGb9FTRit0cfYd7/3jjk9UYdRG+DITZdUgSQl/f1T9cN+pjxJuTDBTguZ2dsDmeJWwu6XuaaM9qD98sSb78csaqLFjJa+8d01Zl4TC2ZJ8UHIOFhrMQaTTrP1JWZSXIYzuhbLmEDp7MIg5veWakz71WFsrYqZOIclzPp78h3w+e0npPJIk1S1XO4rnxhxR1fBq70jdvTPgOPcFfDJ5GZ9DXg1UL/LYAwfPhKTlv6OKS1V2UIRInyu42VNHehyN8T5dS3RxSwDwYFRssudAgEfqvpGqCvbGyI8vhOMzFraqCmbVkOH6VuwekQDCMCDUElYfFWIJ4SSUAU6etqy67Z8LS1oigrkl1BVaqO26iskxMuvgQmFQgg1a0Kz6M0cSSbSM0VQUZXGWqygQASB/reY53gbkXcPYVbDx9g1ZTw2hpV1GUsAAV8V+kZ15dePRRHwuf4SNXV02TlSfNS17AKzjGAERrHxVEbcosfwuvgU+qYNocQVqdVQLa4bgQB8VX0YyStVhidUgrDEeoStp2JahxA4HghFQboXfHh9MVCHPQpjQxCW3wJDp8/CrFmzMG9PAN7k3sbypuwekK5DRQd6spukfGhpaUJUII9VjgcN9RpstZb9WI+SkK0RsfjjS5iSfPb/lOW/f6p+OOKo7Zi8PAxmvdpAiyuTfrb0+FDR0ZPfw+VrQUtTxO5L6S7xwfWXNaFTfBDCsosZMoIDEVXAh96QKRiQeRKH/fKQG3gZOW2+Q7zrQdx++wRnn5tgRCv5zbLPbz8hlau4BSuAvPvbYRvYA2tm9cG0bXbolb4fc1f44GvKU0WUW6NLR+njWzyoqalCEh+L2KL+XQ1qqkLU0XvfiZfELl9DBdn3AnBP2m/J5CP8TihyuKkK0RiC1Vt7InzjL9i2fzv+9K0L222z0ezDD+RrQEONh/y8og9jpeOE/REkye418FG7zSRsPb8TIzXC4B+YJVvik3jS7ZMgPjaWTbkcNTWoCutA730nWZ6Kxs122aJCMZITEos/Q4phUPQA4ufw62P89AF4dXgvDh8Jhc6wruyeYbEJWxjvD9/I4s5XkhqN6IyK3HxhUMDGxVMvdSeVI4Aum3iYV4lI/CBLieMTINEzrPDDQALzGVg7IhFrJv6B6xVoIDxp/UviEVt8EMqOS2EdPfnJU61+mDKch3OHXHHEm4+x2xZiaMEJOGw7ipRmI2D2md1GSFVRmCQlSfLA0j9f4/s1I2HIRiUwnYbtq75DisMcLPdKLXXzVyGJRRAzEog/ClQA85HjYJl9Ac4e3NOMOQ8Q8aYPfhwtHR3JSdj3ygnQ2HoALOIcMHehCwIiH+KG43I4RdREDXYuOwKWveQYdn0lumRZuXQ++0OShKBrSvj+0E4s/GkBNh85iIWdynrURBMWFibIe5WMrKLYGeT67sFG3xL1zp79S1RaoPM30nWwZ+xCPvJy3iI/IxYxskfZ2EiKNsEcI8dZIvuCMzxeyQtzHkTgTZ8fMbqBdIsrIW6hBfr0NMFztw04HJXHFrxD6utsiN9mI/t9HBLp55TAfoCs/rhJqdqDZ8JG1R0rbjTAKAt5ihCY9MOAllHYbPMDtnqH4lGoJzavdccLZfbAlG7kR6GXXGceG0cOjJpbcNMlCdFsyDC0SPHC4UspxbEVxOLstkAYDWzHjaU+UT+ySenn1UK/TS5YpHYA3890RRyX9EqHJ49LurzAfCTGWWbjgrMH5LskBw8i3qDPj6Mh2yVQxXdTxkD73Ep41xuLb7R74ofRNXF6bwzaDDEs7ig+u/2EVLJqvyclTmYCDixm+jVUY2pb/cp4Pn1/wyCGufbnYMZIwGMEul2YWTuuMbHVeHf2U/eksqN8mP1zOzO1+CpM84lbmdOhr2T3EoqJmDiPX5mBnXsw4+YvY5bMms9svp7CLiNm0u4fZxZ2rskoNRzBbLzynLu/8o55fGwe06ORNqNZuzHTd+kZJqZQzKSHuTPzOqgzSs2+Zw4GPWUenJjLdFBTZlpMdWRuR4Yz5/7oxdRRasSM2X6Lic8NYFa002SUNXUYfSNjpkEjc6Zdr6nM3uBs2SeUlHfrZ6Zp47mMr/zDWWmM8+z+zJiRwxmbH2cys2dNZcYMHM78fOwxFx/DpHsuYFrXrc9Y/rSLOe26kOlcU4lpOGIjc+U5t4QojvH4dSDTucc4Zv6yJcys+ZuZ67KbbJlMeCXFzWQGM3snd2SMDc2Z7mPmML+Mbs+YWU1nNp7yZI4v7MzUVGrIjNh4hZGGJE4PY9zndWDUlZox3x8M4u73SYmYyE0jmZ9Ol77/mR99hlnaz5zRVavB1GkxivlfQCb7eeHMibkdGDXlFsxUx9tMZPg55o9edRilRmOY7bfiuTf6M780b8LMvfbhHb738pnoM78xwzp3YKyGjGHGjRvDDB86nvn99HN2jtSn6ucGc/+OG7NAeryYT2bs/WOZ5w4DGR2BBmMxYSPjfs6FmdtBjVFuMZVxvB3JhJ/7g+lVR4lpNGY7cytexO4SD+bXgZ2ZHuPmM8uWzGLmb75eoh5Yokhm45hZjIf0pp50MuJPZvSCy8X3myqy/YRUIuk9KZ40Sa1YsQJsksKqVavkmYt8xNHREYGBgbKfX4Usf2zb+hTfff8tVDMz8CY7Gxkvr8HhVku47h1b+o+BxdHYO3QS4v64hr86V/ZXMfxNfyduBSS6vwp9fq2DfRfmoQldIiPkXzExMVGse1Kksojw4H8L4ZikB2NjM1i06Ygu31mhSyM9tO3cFqUfkWAJTDF9xwxkOrlA+qcw1edvxq1oJC9xwjkFE7bNogRFSCWhJPWfJESjYdPQKWI2WtZvivadv0XPgeOxKrg9Zk9qUsbDGtI8NRnbFunhsqMPYqotUf39uBWGKA43Dnmjxk9bMM28oo8/EEI+hy73VdBXd7mPI87NQGaBCrS01BS7k//A1xe3hP1P+o2ThJDKQpf7/h8QqNWGzleWoKS+vrgpQRFSFahdEUIIUViUpAghhCgsSlKEEEIUFiUpQgghCouSFCGEEIXFW7RoEfO///0PEydOxKRJk7hi8iFvb29ERkaCrS+uhBBCSFWS5iXe6NGjmRMnTsDU1AiNGtXjZpEPxce/QlZWDiws3v9Lu4QQQqrSzZuhJf+YdzpWrZrOzSIfcnQ8i8DAcPbnCq6EEEJIVTIxGUj3pAghhCguSlKEEEIUFiUpQgghCouSFCGEEIVFSYoQQojCoiRFCCFEYVGSIoQQorAoSRFCCFFYlKQIIYQoLEpShBBCFFY1J6lCJN4Nx7N8bpIlyYzC4T/tYWfrCPubryHmyiF5g+Cjx3DgejJEXJGiePskEAc2O8J2lT1WlXo5YLdPKrdUZSiE/8pp+GahH7K5ksokyXiEEwf98YTbH1mR/jiwxQl/bfeAZ0g8wu48RppEPk/R5MUFw37xYnSedqncuinwt0e3bzbDqyoqTxQHz30XcedzFSTJRujhg1hltw929veQXHSAE0LKUo1JSoLEM0dwOMsADVW4ItEz7LDZiODOE7HiNytkrl2O1QF58nmFEXBctg0zh2+Ca5q8SFGoN+mMiZY5OP6XF1ItJ2Dp0ilYumgURjbPwNWrL7mlKoMAzYaMw+IxTaHOlVQWSXow7H69C6ORXdFERYIUjw2wnhMI9e96YkRXTTzcuADd5t1CCsO9AQV4EZtafBJRzfg1jaD35inCU/LZI6tswmbdsGBxH7Sr7MqTEtaH9Zg6uLjUAT7lJioRInb8irnBLbFoxY8YnnkAY1aHIZebSwj5WDUmqSx4uQXieVgg7qRIG7UEaScPYFNSe0zqpgEom2L8AAF2r/LAC+lsFUvYx1zF8R8MoKksW4FCEepoQYvPg1BFBerqNaBeqw5ajZ6FVWP0uCUqAx/aHXphrGWdyt1xkkxcWGaPxMGjYFlLOv0K7tu8oTPxJ9h8Ux9NOlhh6eH1WNqhuOLF0efxx/ZIdmynGJRr66FZA61P1gtfuzlGjm0N/So66vm1O2DR6EysWXIdqWXkKUnaVazd9BpWk9qiFpTQfHxXCHbvg7PsACeElKUak5QG2rQtxMlfd8MpRNrV5cH3/B1kmzVCM6F0Ph91LepDPdAfVzKk04V47HUW8T3HY6imdFrBsaPCwHsCtG5b/M+f5Cc+xHmXs3A6eQ/ROVwhKy8hHB434pH1JBBuZ6OQLuuz8hB3+yqcD1yAR2ha0SXOvJdh8LiZwI1g8pEQcBM3YkTIiryNI4eu436ps/h3iL7pg0NO3vB8kF7uZVLRo5P408cEg3uwJwcyKtBkf/Xduh2uke/kRcqNMHZKO2jzgOwH5zF9+E6cv3Mb9nt8EZbDxhHIxsFu1JMrF3E2NEs+mslPRdD5C3B08sHN6JLjhcqJWyb/NYLOXcBB1zuIzmODey/vFQI9QhCdFYcrbtcRKq3UvGQEeNxDjJgdKQZexN5dx7BrjweuPGNH65JsRHicxe69FxGQLI8l53kwjh84A5cLT5D6fsjIrjeAXW+MKAeRF71w6GzpS6CaPbqj+U0n7A7/OOpc35u4km0MC/kBDn5dU5irh8PryhvZNCHkY9WYpJTQ4beDSM7xwP4BKuyp+Ss8jX4HLV0tyJswwKtVEzULkxHDdmbS5c0HT8D8QYYQyGcrHiYfcWzne+YM28Ha7cW+kDzu0pMEr7y2YcxvYajVoRXqv3CDdccVOBJdiLRgD8y1noXJqw/hr7XOWDFnP84mJeLUfFv877k+vuskxuEhEzBsXxySg85hlvVM/Oj4FIXs6CfYaT369ViJNRvsseR/vri0bz16jHHHM2mHKsnCpUVzMe+2MUaMaICwhWNQt9V8TPsr8IP7SiJEnryOiIZN0E6VK+LXhs2ameie4YnJHcdh4DIvtpPnoVGnFrJRiLJxewz4pjZUjJqhf7/6yHDfCOteK7F6gzPWrt+LOauvIznZD7+M2Y3btZrDsn4ytlpPxqQj8RBXWtyszHuwHbUe53nm6NwgEUfdn8gSmiTtEZznzkevyfux4a8DWL/iL9geDsDBWfPR88ezeFDIngB1bA8t/0NYcvItmpuyG87XRJM6yQjNbYz2+gxijm3H8tO5aNhCBy/2/IwOYz3w/NUjOM2aix7S9a7chv+dCcC+WTMwZtfL4sueSo3RqkEMzp56xhW8J0bC0wS81aoN3aIDXAO1a4rwIibx04mYkP/HqjFJySkrcy2WKUReAXsOr6qMovNhhmH/Jy0vuhGi8PgCIYRCIZRrKEP4fkNyQ7Dm59swnzEK3ZuboufCZfjF9BZ++eMG+B36Y1KPOpAIGmOWsz2eJ2zBmNAD+DW6E36fYIFGLfrjt9UD0aGOALodrTHZSle+0/ha6DB+EHoYAartx8J+/+84sNkaesHBuCO9jZfhi50H89DBuhE0azXDNJumyBc3xk+LOkOn1F7PQ+j9OKgY6kG7RLlqaxucD7bHNhsthGxdiU4WP2HhiXiwuwgq2nqoq8mHQF0LDRqZovvEAehhyEDQahScr51Dwtl+iFr7P1w0H4FZ3U3RnB397v7FCBd+2YvTWZUVdyHubNwEd7MJ+GNIYzTvOgyLxzaQncDwdZpj/KQOMJTw0WqWLa49v4hzC7piwuT2MHy/DoEuRi8dimah13EqVppi8nD7igT9f2gE5dxA/LU+EgKlRNy5mwh1Y11keJ3GiXRzjJ/SAUbsSLP93N+wf99KbJ6gjeDrEey7OWyyMzRUxdOQKK7gPQb5eYVs5SlDpcSAj2GP8QK2/MP8SwiRK9XsqxW/Fupo8ZDHZqr3KYl59w7veDWhW0dxwvwkngqMv7HE4MFWGLfoR/zQWkVWwaJHd3HjpTp0dLnt4GvDsrMxskLC8Yjt9QUCPlTr6kJPNluEx3ceIVM6ipRNq6DNj/NgO7Ie2wHzIFSS/j+HJ4SSUAm169SUfQ6/lgY0JSIUSE/LVWqitmo64l/K7xoJBAIIa2qi1ofDUEk20jPFspODkgrYlQj022Ce40FE3l2NWY3isPv737ExrKxzfgEEfGXUNawtP6BE0bh6IwU1dWpzo1525GLZEmZZkQh8xMZTGXGLYuF96SX0GxqyY2wpHmrUUCmuG7ZO+araMJRXqgyPPXkoOnFgCVsPxbRvHuPAgccoSPeDD77BAG12zBMbibB8M4yYbYN582zw8z5nvMl1wvKmbN1L16GsiTqyjM5DrVpqkBQWlhgJ8aCupgJJZhY3/R4fOnU0wWOP7/yiAzwPb9/xoK2rpbhXBwipZsUtuLrxa6N9OwNkxafgLVeU9/IV0uqao0P9r7AJKzeGZSf5PR6euipqSF4hVnbGLqfGdmTCOtqo+9Gm8aDGjsKy74XjXtGj+QWIuBOFErexPk+jG1Zv+wbhG7bif/uP4c8b2uz0KLD9bGn8GtBQ48nP8otk4YS9F5Jkp/d81G4zENvPLcMozafwD6xAFLwa7DZIEB9b4jKWmipUhVqoW/czh1xF42bXLCqUIDkhtfSlMunom/v1s/gGGD/jO6S5noTL4ShoD28DNWm5Krtv4u/DN7K4TiRpCYjJqMh4hx0ZFYrZff7hI4R86LZvivpZr/Cy6ABPQXyaNtp0MKAkRUg5FCdJsefD30weAIuoB/CX9YMFuB8chyZThuK794+oKzKxCGJGAnEZ/ZigSS+Ms3yLC8438Uo2/x0eROSg94990ZDrnSTse+UEaGzdFRZxpzF34QUERD7DdYcdcAxXRw12rvTykPQlx7DvY38vmpT/IvshyUCIrxA/HlmORT/ZYPPhVVjAJc3S1GHRwgB5r9KQVRQ7g9xr7vjranrRZSiJSAyxshk6fyNfh0DIR37OO+RlJCJGdrOIjatoE0wwclxrZF/wgId8g5Hz4Bmyeg/BWNkGV0LcQlP06amP566HcChSerEtH6mpOZDk5BRvB/vz/a8y7AfI6o+blNIaOArj1Xzwx3UDjLKQX3oWmHTBgJax2Gxji61ekXh03w9b1lxBrDLbXNiN/Cj0UussQOrrXBg1N+Wmiyl/MxCTLGLh7y9/iCT/fiSeNBmEqd8p4OOqhCgIBUpSbL/TagL2zM3FgZXncPrAHuzKGAmHpc2g6E347ZO7cNrrhyeFr3Hd6STO3M8o3TkKGmC+sx0mZR6BzcTNWL50F3xb/IJ9P9RF1oPrOBXAJoiAi9jpE892tWw9tJ0CN6fB0LryP/TrugR/PmuPBd8bITviBk76pyIj5Abcgl4i7PwV+Cfk4L6nN25HPYO3eyhe5D+D58FQJOSn4GHIFSxo0Rv6RgPQ0Gwk2vVag91BH46ElNB+6LeoHxuN4oEDD8pGtZGy709MmLoec2bbYdxUH9TbZIflbaQduRKa9ewCk5s70H+pH+77+iIgOQcBbsfhEy29ayVA0/m2ODwpB1tsVmDB8u34zdcMO/YNQX1BDiIqJW4VdF+9Dtt7vYJdr/GwGrsTF5LUYMDEwP2sH86eCkNyVhjcdt5BNFupksxnOH/yARIzInHO7SF3siBdjQWm/9QFg8b3hsn71iA0w2K3tZhTPwrrR09D90keENiMRA8Ruw73B0jIegLPIw8QFXEb7reSkR/hh4O3XsnfWxCNh8/qoP9QC/l0ScLG+HnPGOQcsMfB02fx+643mOkwBe0pRxFSLp6dnR2zYsUK2NpOx6pV07ni6pXz8ikeZ9eGRfM6eP/AWXVzdDyLwMBw9ucKrkTBZT3A9m0v0G1KGyhnvsGb7HfIeBkEhxsNcHifNUo9xS9OwL7hqxD7216s7yy/w1Nt/k7cCkh03x59ftXCvgs2aFLeNbycZIQ9zoWehSn0FeUAJ0QBmZgMVKyR1Hsaxo3RXoES1NdHhAf/24z9ibVhZGwMizYW6PJdO1g2ro3WnZrK77uUJDDCtG3DkeXsiWdlPRfxxfzNuBWNJBknndMxYduo8hOUlIY+WrWnBEVIRShkkiL/lhCNhg1Dp4i/0LL+SLTvPBU9B/6OFYHmmPN9wzJv0gtMB+J/i2rD5+BdxEiv2FWLvx+3whAn4+bhAKj+9DOmmb//QyhCyL+lkJf7FNFXd7mPI859g8wCZWhpqVawk5ew//Gr/ezl78dd3RSj3gj5L1HYy32k8gjUakLnb3X0itHR/v24qxslKEKqArUrQgghCouSFCGEEIVFSYoQQojCoiRFCCFEYVGSIoQQorAoSRFCCFFYvAEDBjBeXl7Q1FSTvUjZ3r7NQ2GhCFpaZX1JKyGEkMqWnJwO3h9//MGsXbsWP/88HosWTeBmkQ+5uV1CaGgUNm1awJUQQgipSt98M4W+caKivtZvnCCEkK8VfeMEIYQQhUZJihBCiMKiJEUIIURhUZIihBCisChJEUIIUViUpAghhCgsSlKEEEIUFiUpQgghCouSFCGEEIVFSYoQQojCquYkJUJySASe53OTMhJkhF3Buj99ECvmiqQk2bjvfgKHbqWiZLEiyHkcgINbD2KtnSPsSr0OwOHGa26pylCIALuZ6LLQH9lcSWWSZETilFMAnhXIp3Oe3MGh7S7Ystsbl8KSERH8FBkS+TxFk/8yFI7LluDbGZfLrZuCAEf07LIZ3lVReaI4eDpcQlAFKkiS8RTu6w7iRKkDnBBSlmpMUhIknT2CQ6/rooEKV8Smn4QAL2z4eTPWnHyGLIYrlioMw57FWzB1yAa4pnFlCkLDvAsmfPMGR9aeQ2L7kZg3byzmzR6EAQ2ScPFKArdUZRDAfNAYLBhlDnWupLJI0oOx7vc7MBjVBWbKEqR6bYb1TD8offMtrNspI9h2FrrO98eron1SgBexCnTCoKYLzdRIhCbmsUdW2YTm32Lugt5oU9mVJyWsD+uRWvBY7ADf9PITlTghDIc3bMGCNVcRUeoAJ4SUpRqT1Bt4ugUiNioEQa/eN2oBjLoMwvIJzaDMlRRR6QqHGB8cnaQLdSFXpkCEdbRQm8+Hkpo6tLQ0oaWjj/YT5mHVKB1uicrAh3bbnrD5tk7l7jhJJjyX70PCwNGw1JROv8bxLRegNWk6xncxRfMuvfD70XVY1FoInvwdED05i9+2R7JjO8WgwtZ38/pan6wXvnZTjLBpA4MqOur5Op2waPhrrFh6E2nl5CmBUStMWW6N9h8d4ISQslRjklJH69b5OLZ0J5xCSnd1ykoC7reSCvDYmx2p9J6AobW4IkUmeoa7D5TRuk09rqAQKaF+cHP2xNnbSXjLlUrlJz2El18Csp/dhbvnM2TKOrh8JNy9jiOHLsI7LKNoxJKfGMEum8hNFyDxjj/840TIfnwXx1xvIqzUWXweYv19ceTwZVwKzyx31CN6dBLrrhhjUI/3Qwwh1NUZXN+2A8cf58mLVJrAZnIb1GKzVHaYB34asQMXggLh6HAD4W8LkBTkB7+Yt3h29Qo8w7Plo5mCNIR6XYTz4eu4HfdOthq5yolbpuA1Qi94w8U9FC+5y5Qy+a8R5HUfMdkvcdXdD+HSSs1PxV22LFYsQcqdy3CwPwl7hwvwecZuoyQbDz09sG//FdxJkceSEx2KU4fOw837GdKKdkAq7njfR5zoLR5fvQRXj6coGbpWHys09TmI3REirqQMykK2hgkhFVGNSUoJHX93Qkr2OeyzLrre9wnKMB88AQuG1FPcBs7kIy7gJs6c8YHzmj1wuMfdbJNk4OKy5Vjiq4JW3+gheuNcdPrxkqyzTA0+jzn9Z2DCykP4c7Ujls/YB4/UZJz5eTU2P9ZFl/b5cBo0HqMOvEQyu+ysvj9hisMTFLLrDHL6E32tVsJ2gz0Wb74Cj51r0d3mJKKlHaokC1eWzMXcW4YYOtgIQfNGQa/VXPywPhDp8qg4IkSevI6Ihk3QVpUr4mtj7JqZ+C7NA+M7jMfgXy/iQQYf5l1aoC57xCgZtELfDlpQ0W8Mq276eH1sA/pb/YGVG5yw2m4nZtjeRGrqbSwbsx2+qmb4xigeG/tNwY/H2ORaaXGzsu7DbvSfOCk2QwfDWBx2f85uDbuK1EdwmjMXVhPsseFPB9gtX4dVrnfhNGsOuk05jfuFfNTt0Arq1xzx8/G3aG7KbjhfE421EnAnqyHa1mUQc2w7lrpnwsBME0+3L0D7sR54nvwQTjPnwGqSAzas3IrN7rew86efYLM3vjiRKjdBa9NonDn1nCsghPwb1Zik5JTZs8r/Hh4EysoQctfG8m44YoGnCWbN7YgWzTti4Z6JMDmzFSvP50K3gzUmWdWBhN8IMw85IDp+E4YH7ceypx3x6wQLNGrRD0v/6ItWtQXssv3ZZfXkO41fGx3HD0IPQwaq7cbCfv/vcNpiDb2gewiS5sYMX2zf/w7trRtBU8sC08c1Rb6kKWYt6Qxt6fuL5CH0fhxUDPWgU+JoUGszDh7B9tg2tiaCtvyBjhbT8fPJeHYMBKjqGsCgphACDW2YNTVHj0kDYMXGwW8xEoeun0f8qd54ZLcZnk1GYW5PMzTvOR57FuvjzCJ7nM+urLgLcXfjRhxtOBErhzZG82+HY9FoY0jH4Hzd5pgwqQMMJTy0mLka16O9cXpOZ4yf1B5G77dRoI+xvw5D09AbOPNCOhTKw+2rYlj/YAbl3ED8tT4SqhppeBCWBm1TXaR7ncaJzKYYP4VdL6OMdnN/w/59q7BlgjaCbjxix70cfi3UM1LBk+BIroAQ8m9Ue5L6T+GpoH6Xbhg+vBcmLf0RU1pKR4giRPiE4GXNWtDlrmLy67ZCF7M3CA6MlXX6AgEfqvp6slGKdPnHdx4hs1ZN1JRNq6LD9J+xeoQh2wHzIFSS/j+HJ4SSUBk6ejVlO5KvpQlNUaFsnVCpidqq6UiIl192EgoFEGqqQ7PozRxJNtIzxVBRLX2TpKBAxPbjbTDP8SAi767GrIax2DXld2wMK+sylgACvjL0jbTlB5ToOXyup6CmTm1Z0pAeZnUtW8Es4xECoworJ25RHLwuvoC+qSE7JpdTq6FcXDdsnfJVdWAkr1QZnlBYdOIgJWw9FNM6RMLxwGMUpPvBh9cZA3UAcWwkwvLNMHT6KMyaNQrz9jjjTa4Tljdl6166DhUt6GlL18uDlpYaRAUlL1fzoKGuAklmFjdNCPk3ilswqVzKTdClYw32Fx7U1JQhiU9CbFH/rgo1VQHq6GlxnXhJ7PJsZ5t9LxzvrxZK7+GE34lCDjdVIRrdsHprR4Rv3IZt+4/iT19t2G4bjWYffiC/BjTUeMjPK9nRZuGEvTeSZPda+KjdZiC2nl+KkRpP4R9YgSh40u2TID42UXb5TUZNFapCtnPX/cwhV9G42ZGUqFCC5ITXxZ8hxTCo8DNzfAOMn94Vrw6fxOEjj6EzrDXUpOWqKhDG34dvZHGdSFLjEV2h5+8ZFLBx8dSr4hFCQv7/UcgkJZGw3QzbH3xVD+iKRRAzEog/6scEMB/ZD5bZt+DskS5/oCDnKSLedMKPo6WjIzkJ+145ARpbd4VF3GnMXXgBAZHPccNxJ5wiNCBNeYy0E2Zfcgy7vhK1JCuXzmd/SF4j6JoQ3x9agoU/jcPmI6uwsJOGbLHS1GFhoY+8V2nIKoqdQa7vCWz0zSh+nJvdMIlKI3T+RroOdkQn5CMv5x3yMxIRI3uUjf3cok2oj5HjWiP7ggc8uCc3cx48w5s+QzG6gXSLKyFuoSn69NTHczdnHI6SZvN8pL7OhfhtLrLfx8H+fP+rDPsBsvrjJqVqDx4FG9UrWHHDEKMs5JeeBSZdMKBlLDbbrMZW7yg8CvXD5rU+eKHMNhfpRn4Uesl1FsjiMGpuyk2XgT2+ZTVQMhBCSJkULElJkB7uB0fvaNkfZx49Hs6VK7acx3fhtNcPTwpf47rTSZy5X6JzZwma2sD58ABkbvkNExfsxNJfg9Fix2+YbAKkP7iOUwFsggi4iJ0+8bJ7G8K2U+DmNBhaV/6Hfl1/wZ9P22P+FEO8Cb+Bk/6pyAi5gaPBLxF2/gr847MQct4bAVHP4HX8HuLyo+F54D4S8lPx8J4PFrbqC4N6A9HQbCTa97aDfUiuPKgiSmg3tCtMYqNRPHDgQdmwFhL3rsOEqesxZ7Ydxv3og3qb1mJ5G2lHrgSL3pYw8duFAcv8cN/XFwHJOQhwOw6faNkFTDSdb4vDk3KwxWYFFizfjl99zbDDfiBM+DmIqJS4VdB99Tps7/kKq3uNh9XYXfBMUoMRonHsrB/OngpDclYY3HbeQTRbqZKMZzh38gESMyJx/ugjFP3Vg0pL/DStMwZN7A3j961BaIbFbmsxp34k1o+aiu6TPaA0bhSsRM9w3v0B4tPZdbiGISrCH8dvJiP/oR8O+L2Sv7cgGg+f1UH/oRby6Q9I0p/B09EfD/NTcOvoFQQmfPLZRUL+3+PZ2dkxK1asgK3tdKxaNZ0rJh9ydDyLwMBw9ucKrkTBZd3Htq0v8d33baCa+QZvsnOR8TIIDrfM4Lq3b+k/BhbHY+/QlYj7wx5/da7mP+D5O3ErINF9e/T5VQv7LtigycfXcgkhf4OJyUC6J/XfJMKD/22BY1JtGBsbw6KNBbp81x5dGmmjbWdzvH/SvIigHqbvGIFMJ088K+u5iC/mb8ataCTJOOGcjgnbRlGCIqSSUJL6TxKi0bBh6BTxF1rWH4n2naei58DfsSq4KWZPql/GwxpsnjIdhG2LauOy4x3EVFui+vtxKwxREm4cuo0aP/2Maeb/xT+rIKR60OW+CvrqLvdxxLlvkFmgDC0tVcXu5D/w9cUtYf/j01kfIZWILvf9PyBQqwmdryxBSX19cVOCIqQqULsihBCisChJEUIIUViUpAghhCgsSlKEEEIUFiUpQgghCov3888/M1u3bsWECdaYONGaKyYfunjxNqKiYrFw4XiuhBBCSFWaNGkleKNHj2ZOnDiBRo0awczMjJtFPhQfH4/MzEy0aNGCKyGEEFKVbty4UfKPeW2xatUqbhb5kKOjIwIDA2U/CSGEVD0TExO6J0UIIURxUZIihBCisChJEUIIUViUpAghhCgsSlKEEEIUFiUpQgghCouSFCGEEIVFSYoQQojCoiRFCCFEYVGSIoQQorCq9WuRRMkhuPe2Bb5ppAJJyg0cOHATyWJuZhEeNNvaYOEgM0gy7+Ok2wMYDJuI7wy/7D8s/qmvRXr75ArcPYOQkCMBT7UOmvcZiaFtVPHkoju87iXhrYQHVd2W6Dd6EJo+Xof+i9Kw5PI2WGtyKyhDdpQHHHba44LKXHj/zxqqXPnHxHjpfwznbsUgoxBQ0TbFt0PGwtL4y9VP/stbOLxrG5wzx8B731h8YrMIIaTCqvVrkSRJZ7Hl0GvUa6AimxY9vgyftKYYMG4ypkyZwr7GolXKUazbcgUF9U1kyxQG7MHihVMxZI4r0mQlikG9SR9MsHyDo3bbEG5ig+FtdNmK1UTT/hPQPuUQ7HZFodH4IWilzYfQfBDmLhiFNurcm8uhYtwB9TLvIeJVHldSHgGMu47DcLVrWGvnDfT7sglKRs0ImqnBCE3MhYQrIoSQylBtSSrD0w2XYqNwPeiVrGOT5LfGuOUj0d6svix76sQ7Y7VTEixX7cWilsqy96hYOyAm9SgmGalDKCtRHALdOtAWqEO7Tg2uREoIbe1aEGjWga48F4Ov3RYjbL6FwWdqXlldB4Z6NdlxZEXwUVtXG8oCXegbfOEExVLRMUHz+tLETAghlava+hXN1q2Rd2wpljuFoICdVu0zBsN0uXCyb8J25jbEdV2DPfOaFyek/MfwPpiI3ouGohZX9NXJT8RdLz/ElrismRvrjzNHDuP4pXCklSjnsRlKmqQkWc9w4+RReIZnfHakIn2PTEEyQrxu4rkoD7H+J+F6OhAJ0orOT0Dg6cM4evUJcuRLIu9FAHyCkpGXEIjTridw/Vk2N0cuJ/oWTh1ygpt36fiknxF6wRUu7jfxUrruImKkhnvDzekgXC8EIymfK0Y+Eu94wz9OhOzHV3HM1QNh6SW3KA8Jd8/hyCE3eIelsmspVm4MhJD/tGpLUsodf8ftlGxE7/vwfksmrv4xE7uSrLBuz2w0LTlkUjHH4J8XYIipoo2j3hPjbUosoqOjuVcskt8UgOHmSlKD4TSrL7pNccD9QlkJ0q8sQf+5t9Bw6GCYBs1DU71W6P/DelxJl70FoqTr2LZ+Hzx9HDDDahz2lcxu5ZCkh+LIXGt8N8YWu3baYdeZa3D5pQ96zt6KHb+vg9t1T2waY4Wfjicj3m8bJna3wsy/1mP+vPU4sHUB+rXrhl98Mtg1iRHDnkgsdX8NAzMtPN0+EO3HOiNGGkKWH+xGz8BJcUt0MIzCYfcIiOSfjhdHJsBqaQQad2+Hdy6j0Hm2B7IkqQhymom+VpNgu2ElFm92h8fOn9DdZi+ipeuTvMSZn3/A5seG6NI+D06D2mLUgRg2gk/EQAj5z6veKzTKyh9ctmM77Yu/Yfa+dPT9azd+Mvvyl67+FSYPL+56w9PTk3t54dazN0VJiq/bAeMnWcGoqNYzcGb7fuS0t0YLTS10nD4O7fIlaDtrCfpoy5dgNNvipz83YeOOtRhbJxi3gouGJeWSXlIc80Nv1OerovkEO2zevAuOCzoiPiAJHdfuwY4dzlg9BAi4HgHdb6fDprMG8pQtsebkOXjevop17Z7DfuMxJORcxl/rQ6CqkYwHYcnQNjVCupcDjj99h7sb5+Fow8VYObQVmrPrWDTaDPK9JUHGazFaWlujrWkrDOxmhrSIMCQyuug4fgp6GDJQbTcX9vv3wWnLBOgF3UAQu0k5Xqux7GlP/DqhIxq1sMHSP8aiVW12WJhbXgyUpQj5/6B6k9QHJKkXsHTOAWQP2IAd3zfkOr2vCE8dzQbPwrx587jXbIxuV6dUJfOEShAW3WhSQe3aqniVEC+75AmhkP2fJmpqFi0AJY1a0JSugK8ODbV8vHsnL/8cvvRzBGrQ0JC9GTVrqoNfg1237KyAB3U1VYgK8tkEygePz4eGYT1oSxdVNseYYe0giXuKZ89CEJbfAkOnz8KsWex27QnAm9zbWG72DF4Xn0LftCGUpKtjqdVQ5e6fCdF6IZsEG/jAbtU6uIRmghFLIJFmap4QSkIV6Ohpy+qEr6UFTVEBu+0iPL4TjMxa2qgpqyw1dJi+BatHNABiy4mh6Vd3dBBC/gFZl6AQJCk4+8t8uOQPw+adk1C/qA8S40VwMPf7f40Ghqzeip7hG/HLtv3Y/qcv6tpuw+xmZXXAbApg//d+VFZ12ISlXgMCbT3oqatCGO8P38jiG06S1GhEZ+RBVChGckIid4mPwzBsfLkIsO2LSZeaYf6qFZhnVa8CBxmPTXIqyL4XgHsl7l+F3wlFjmp5MdBzhIT8f6AgSUqCxBM/Y8FRCcb8bxtsiq+HAW8DcfDcU25CgYlEEDESiEv12myKlYjZvpsdSXDTso5c1plLSZAUdA1K3x/CzoU/YcHmIzi4sFPRQyHsYuxypdOS9L1lkY9W2M9/fxVM9jnc71KyidJrK14Xg+yMdC7hZMH/zgt0thmBJg37YUDLKGy2+QFbvUPxKNQTm9e644VaS/TpaYLnbhtwOEr6iPw7pL7OhvhtNrILnuGSRyh4BsbsdmQgIioB4sJ8ZCUkyD5HUjKC9zExAjS2HgCLOAfMXeiCgMiHuOG4HE4RNaFhUk4MyopzfkUIqToK0dIlySeweJE7knSMwbuxDvPnzsVc6Wv2VAzvNgZnRY24JRXT2yfX4LzHA1GFKbh5aA/O3E9lO+NsRF05CHvPZyhMvA7nfedxP/oBzp30R2JGCM4fDcYriQgJD+/hxMJWqGtQDyYNzdC0fW9Msw9CfMQ5uPsnIuuBJ474RyLc6yT8X+YjwtMJt5NKjiLEeBnghi3H7iJfdA/um13gH/UQ3if9EJ8bgYsufoh57ouDFyOR/+ImjntFIDr4FM4EvUL6vfM4dV/+F2cFYW74Y+UarFr8M07q/QnHuU0gELbEYrcjmFM/BOtHdUX3yc5QGjcLVuwIq/tqN2zvGY/VvdrAauyv8EzShBEewf2mMoZN7oXUrf1hOfpPhBu3g3HCedhfi0PEeXf4x6cj5LwrAqIi4HX8JuLyH8LzgB9SWi2Dm9P30LryM/p1HY4/n3bH/CmNPhGDLGxCyH9ctX7jxNfkU9848c+xo5ZtW/H0u+/xrWomMt6wI5GMl7jmcAstXfdi7BfpiPNwaoIxftc/i7AtXSH/izRCCKl+1fqNEwQQPfgfFjomQc/YGGYWbdCxy3ew6tIIem07o23534NU+RjplbcSl+EIIURBUJKqRsJGwzCtUwRmt6yPpu0749ueAzF+VTDaz56EJl/k4TURkkLP4dqjN0gJuYgrkZ//Y2FCCPmSKElVJ422mHHAH7GJTxBw+SIuX/HEsR1z0PX9N29UOT5qNeiOP7xjEXlsLjoaqtEBQQhRKNQnKQKBGmrraEHti//pDx9qtfVhYGDAvvShV4v7gkFCCFEQlKQIIYQoLEpShBBCFBYlKUIIIQqLkhQhhBCFRUmKEEKIwqIkRQghRGHxBgwYwHh5eUFDQ0P2ImXLzc1FYWEhatX6av9NYEII+aq8evUKvD/++INZu3YtFi1ahMWLF3OzyIfc3NwQEhKCLVu2cCWEEEKqUseOHekLZiuqar5glhBCSHnoC2YJIYQoNEpShBBCFBYlKUIIIQqLkhQhhBCFRUmKEEKIwqIkRQghRGFRkiKEEKKwKEkRQghRWJSkCCGEKCxKUoQQQhSWoGfPnra+vr6wsrKSvaqcKBkhwSnQMdJCTvg5HHA6iUvXb+FerBAmjQsQcNARx7yv4WbgQ6SqN0BTA3VIEm7DzekIzvveR2otczTXzcP9EwdxKd0ILetrfpFMe+/ePcTHx2PIkCFcyXsSZP7T7airyq3jc3Lw2HM3bBctw6Wa42DdRMiVf5okIwSnjz1AHvMQpw9VYXw5j+G52xaLll1CzXHWKB1eNqI8dmHlohW4WdcGfUwrFntZ8l/egvOfizD/JDB6cAuocOUlFQTYoc+YM9Ab2x+Ny1rg3xA9gafjFWSZNodRDR5XWIIkBSFnj+LoaW9cvXkb4S9E0G7UANrKgDjxDk66HsWZi34Ie8GDvoUJapVz4OY89sRu20VYdqkmxlk3wT+vMUK+blu3bv3CIylJEs5uOYTX9RqwHQwfWi0HobfSFfy15hxyO3SCkVoj9BlaHw/t12BrWF1Yt9WVBSgwssTgOuG4lm8J61ZaQGEA9ixeiKlD5sA1Tb7q6vMvtqPCVGHc3hjZoRFIeSfhyj5Nkn4d6373gcEoa7RrV8XxqRqjvXE2QiNS8HF4KjDuYID04EikvmO4sn9IzQiaqcEITcxlTw3KJjQfhLkLRqGNOldQmYRNYD2yDjwWr4ZvehkR8Oui/dCh0ArcADv2wGw32gpmXBwCw04YNUQN/lcl6G3TFSYCeXlZVI3bwzg7FBEp78rdTkL+v/iySSrDE26XYhF1PQivZK1PiMYTJqOnWhT8/V7JGiRffzhmj2mIt/eDEF4gXUYqDyFhmhg7tS3UpJMq1nCIScXRSUZQV4jTzH+4HRUmhJq2EfRqlnH2XhZJGjyXr0LCwNmw1JQWVHF8QjVoG+mh7PCUoa5TD/q1Khj7J6jomKB5fXlCLQ9fuy1G2HwLgyo6svk6vbFoeCJWLPVAWlkZhF8LhnVrgq+rD4MPjk2+tj6MTOvD5DPHrFBNG0Z6NfHva4yQr9+XTVKardE67xiWLndCCNcx8vWHYWwvJdw6eQYJXOIybWQC3pOzOBHMLZTnB++sjhhs9D7cfDz2PojE3oswVEH+ead/sh050bdw6pAT3LzDkSaWFbHESA33hpvTQbheCEZSPlfMdlm8972WOAG3juyDvb0DXC5GIocrfk/0aC/WXTHDoB6yDCVT5fGxwRWHdwtH9tnD3sEFFyOl0RXHLkn0gys7by8b++EbsRCxZTmR3nC23wdXv0T5Qh8qSEboBVe4uN/Ey6KEyspPQpCXH2Kyn+GquyfCM9kNy0/EXbYsVixByp3jcLDfK4vD51ku++GZeOjpjH373XEnRZ5hytxGdh13vP0RJ8rG46vH4OoRhpIDJ60+w9DUZx12R0ijL0OJuiiNLS2akY/EO97wjxMh+/FVHHP1QFiJD+EV72wk3DqCffb2cHC5CGl15ifegbd/HETZj3H1mCs8wtJLjbgKUkLh5eaMw2dvI+6ttESCJH832Trsna7gSeYTXHFmj5+99tjvfgfJEjFe+rmydXUAl56x2/SZ7SfkS/qySUq5I36/nYLs6H2wLrrdoYNBNv1Q4/ZJnH7B9hKSeJy/VwNdzWJx9ngA25SBt77eyOk0CPpF0arAfPDPWDDElO1qFcXf2Q4xYo4txVL31zAw08LT7QPRfqwzYtiO9cWRCbBaGoHG3dvhncsodJ7tgSz5BxRjChHt64lIre8wsn8zlP6nKkWIZBNRRMM2aFvqltKXi48pjIavZyS0vhuJ/s1KR8c3bIcWmUfx2/JL4LdpINt/Go3UEeH1FMatDeULlZTlB7vRM3BS3BIdDKNw2D1CltgkqcFwmtMfVhNWYsOfq2G3fAZWuV6F06y+6DbFAfcL+ajbwRLq19bi5+Nv0NyUHRvytdBYKxp3spqjbV2mzG18nhwEp5l9YTXJFhtWLsZmdw/s/Kk7bPZGs+mCo9wGrU0f4sypCK7gb5KkIshpJvpaTYLthpVYvNkdHjt/QnebvYgu+pD3GBRG+8IzUgvfjeyLOpFOmNnXCpNsN2Dl4s1w99iJn7rbYK/sjRKkXlyGMUt8odrqGxhFb0S/Tj/iWCwDg/YtkXZkKbY8UEEDrSbo2jIRjkv2IM60Pbu/BewI7w0CgmqihUbo57efkC/oyyYpGWUof5BZtKxtMLDWHZw8GYOCuHMI0fsZG8a1QMK5Y7iZmwPfy7noMlCvOoL9Wyq8HbmX8df6EKhqJONBWDK0TY2Q7uWA408LkfFajJbW1mhr2goDu5khLSIMiSV7h7xIOC/ZhKzpLthu0wwf33p5i9D7T6BiaASdDyrsS8SXF+mMJZuyMN1lO2yalXVjSA2t563G5Lq3cdZTfukxP9Ab6VbT0bV44McpwN2N83C04WKsHNoKzb+djkWjzSC9ncPX7YAJk6xgKOGjxcxDuB4dj9Nz+mA8W1Y04BYYY+yvU9E09BzOvJB+Ui5uXxXD+ocWUC5nG09ktsP4KT1gyKii3Vx2pLHPCVsm6CHoRpAskcvwdVDPqAaeBIdwBX8TXxcdx09BD0MGqu3mwn7/PjhtmQC9oBsIKvoQqTxEOi/BpqzpcNlug2bqfOh2HI8pPQzBqLbDXPv92Oe0BRP0gnBD+sa8G7Bb4Ikms+aiZ4vm6LlwDxabnMGileeRpWqBaTN6I8vHC6HsaFSt9WD0N32Oi16RbNKXIN4zBuZzh8NIv+Pnt5+QL0gx+n2N3rAZpIOQU8dx9XQYDIZ+izZjR6PdKw8cv3ABVwq+xUA9RU9RrApuhzg2BGH5LTB0+izMmjUL8/YE4E3ubSxvqoLWC52xuoEP7Fatg0toJhh29CIpet5AjKjtk7E8zAy92pTzYIMkE+mZIqiolvFkXlXHJ47C9snLEWbWC+WFJ6P2HebNaoZrW+0RIcrGpVNp+G6cPPmUInoMr4tPoW/aEEpckVoN1eIrZgIB+Kr6MKpbfGzwhEoQlrjWJmw9FdM6hMDxQCgK0r3gw+uLgTpsqOVuo0C+DhUd6GlL18uHlpYmRAUlrzPyoKFeg63qsp/aURKyWyIWfzzykEi7eWX57zwhu5wKdPS0ZY2Qr6UFTVEBm5aLiaO2Y/LyMJj1aoPi6uRBqCSEio4e5OFpQUtTBGl4oggfXH9ZEzq6XE3y68KyixkyggMRVcCH3pApGJB5Eof98pAbeBk5bb5DvOtB3H77BGefm2BEK/nZ4+e3n5Avp7h1Vys1WI0bBsN7+7DwmiGGdFSGwGwMRnfKxJlfN+NdN2uw/cpXoILbwSYQYbw/fCOLG74kNRrRGTkIsO2LSZeaYf6qFZhnVe+DHSSA+Yy1GJG4BhP/uI5MrrQUvgY01HjIzyvrvLeK4xOYY8baEUhcMxF/XC8zOo4AZt8vwOAUR2xxOQxPxhrDy3zSoQCiQjGSExJll/iKMAwq/Jwgvz7GTx+AV4f34vCRUOgM6yp/KKTcbazIzRcGBWxcPPWPhn4sAXTZxMO8Siw9AmaJ4xMg0TOs8CVqgfkMrB2RiDUT/8Anq5PDU1ODqiQesbHFtaWmxm5nHT3I8latfpgynIdzh1xxxJuPsdsWYmjBCThsO4qUZiNg9tFZAiHVT0GSFKBiOQ7DG6ZCvcMItJW2YkF9jBxticLsxujTT1u+0FegItshMOmHAS2jsNnmB2z1DsWjUE9sXuuOF/xoXPIIBc/AGLWQgYioBIgL85GVkMC+i+2Y2c5Z2tFsclkEtQPfY6ZrXBn3CTRhYWGCvFfJyCqjv62y+KSJQxbeJrgsUsOB72fCNe59dPLYpfOLaA3Ewh/1cOZne2iMsC4xUihBaIE+PU3w3G0DDkflsQXvkPo6G+K32ch+v23sMK7UZso+h31xk1K1B8+Ejao7VtxogFEW8hRR7jYqs02CYddYYgWyuEutM4+NIwdGzS246ZKEaDZkGFqkeOHwpZTi2ApicXZbIIwGtuPGUtK4P/oQ+Q/ZpPTzaqHfJhcsUjuA72e64n11lg5PHpd0eYH5SIyzzMYFZw/u6dkcPIh4gz4/jkYDWQJSxXdTxkD73Ep41xuLb7R74ofRNXF6bwzaDDEs7gw+u/2EfDlf/o95yyMwgE7aC9QYPRXdZJf2eNA0FiH6dXvMHtmMbV7Vq/w/5v1ARbaDXxedejVHjt9h7Ny8FU7Xc2H1mx3GmelDKy8YThu24GhQBozbaiPi3FUkN+oEk2enYH/UH7ECI3QeNAxG4buxafd5PFNqgOatG6MOdxWJDQB6atE4eigFnWYMQIMPT9urIL6kug0g8nPHUf9YCIw6Y9AwI4Tv3oTd559BqYExtB4ew87Dt/BCaIJ237RBPU3p9Tg+9Mz5CPIzxPwVfUo8FFOSEA26WEI36ijW2m7HubsxeJudisRcJajUEiD5oiuO3orCWw0LdOxgilrZ4TizZxeO+MVB2KATLFsbQl36UUIj1M8LRZrVr5jYnDuSyttGnWc4s3MnXPxeQtmkLZooP8DRfS648VQE3XaW6GRSk0049+C6/ioaLFqLAQ0/rGC2ig0t0adZKs78ZQcHj6u47HESrm7XIR6xHiv76rJ7KAsRZ3Zip4sfXiqboG0TZTw4ug8uN55CpNsGTXh3cMThKPxjBTDqPAjDjMKxe9NunH+mBF1hHLyOuMHvpTJM2jaB8oOj2OdyA09FumjXtT9GDW2JtFMbsM0zHJF3LuOp6RJsnNkaGtwlUH5dI+Q8yELf3yaiqaoABoZvEJ5njaXDG8kvqWZFfH77CflCpH/MCzs7O9l5kq2tLXsyRsqzf/9+ZurUqdyUghM9Z/YMtGSWBeRxBYopP2AVM3vnc0bETX8tCkNXMlb9dzCPv7bACfnKGBsbM2Wev5KvnMAU03fMQKaTC6R/9qJY8hB90wPXgm7B3jETPcY2YEcWXxHJS5xwTsGEbbPQhO7hEFLlKEn9RwlMJ2PbIj1cdvRBjCIlKlEEDi0cg/4DFuP5oMUYrvsVHYKiONw45I0aP23BNPOPL/MRQiofJan/MFXzoZg9szfKuG1SfYQdsDowDZlJd7F9mPHXNYoSGuO7H6ZjmEVVfDEgIaQslKTIl6esBrWvciDCpwZDyBdGbY4QQojCoiRFCCFEYVGSIoQQorAoSRFCCFFYlKQIIYQoLJ70WxQOHDiAbt26yV6kbKGhoUhISMCgQYO4EkIIIVVpx44d4E2bNo1xdHSUfW9fjx49uFnkQyEhIbLv7hs6dChXQgghpCpt2bIFPOl3961YsQK2trZYtWoVN4t8SJrIAwMDZT8JIYRUPRMTE7onRQghRHFRkiKEEKKwKEkRQghRWJSkCCGEKCxKUoQQQhQWJSlCCCEKi5IUIYQQhUVJihBCiMKiJEUIIURhUZIihBCisChJEUIIUVjVm6REyQi5+xz57K/5MTdwZNcGrLWzw9oNu3D40kNkSOSLyUgycd99Dw7dSoSYK1IMEmSGn8Xuv9bCbu06bHW5jYTc57i0byO3LXtwKjSVXQoQJ9zGke3rsXb9TpwKy5S/vUJy8NhzK+YO6oYFF/K4ss+TZITglJM37t2r4vhyHsNz61wM6rYAH4eXjSiPLZg9sBeW+Uj39D+X//IWHJeNxLczjrNrLVtBgB16dlkI7/IW+DdET+DpcAxBpQ7MsmThgdsG2Nqtxrr9/nj1ucXxFk+uOmHrn2uxdtMpPCrgiksR48Wl3Vgn3YcHPRGW9tmVFqlIvUllR3lgy+yB6LXMR9YmFUHpmP7OsZSPl7ccsWzkt5hxvCoOBvKlVF+SkiTh7JZDeF2vAVTYSZWG3WHzbS5O263HdY2hmNDPArVLRlcYgD2LF2LqkDlwTePKFAIfWi0HobfSFfy15hxyO3SCkVoj9BlaHw/t12BrWF1Yt9WVVbTAyBKD64TjWr4lrFtpyd9eIaowbm+M7NAIpLyrWOckSb+Odb/7wGCUNdq1q+L4VI3R3jgboREp+Dg8FRh3MEB6cCRS3zFc2T+kZgTN1GCEJubKkmpZhOaDMHfBKLRR5woqk7AJrEfWgcfi1fBNLy8CER7uHIc5dzpg4YpfMfiVLcbY3cWnTy3U0aTXGLR4cQC2y2dj9Wn5SUMpef7YOn8hVm4Lh9GIgWil8zeabgXqTUrFuAMM0oMRmfoO/3JPVZrSMf29Y0nNSBOpwaFIzP3UVhNFV31JKsMTbpdiEXU9qOhMk29ogDoCdRgayTvNUlSs4RCTiqOTjKAu5MoUhhCNJ0xGT7Uo+Pu9knUEfP3hmD2mId7eD0J40ZlxHkLCNDF2aluocSUVI4SathH0avK46c+QpMFz+SokDJwNS01pQRXHJ1SDtpEeyg5PGeo69aBfq4Kxf4KKjgma1y/j2CiBr90WI2y+hUEVHdl8nd5YNDwRK5Z6oKzBjCTtFOz+SkT3Sd2hxW67xbh+kOxcDZeEz3WUqjCq3x5tLETw3HkQj0tdLpDg1elDeKDRAMJaetCrwRVXUEXqTUpZXQf19Gvh3++pylM6pr9zLKlAx6Q56utWXxdHKkf17UHN1middwxLlzshpMTlDZ70vzKPwXw89j6IxN6LMLQWV6RA+PrDMLaXEm6dPAN5fySEaSMT8J6cxYlgbgPz/OCd1RGDjeTVnhN9C6cOOcHNOxxpRZ2SGKnh3nBzOgjXC8FIKrqqUaJexAm4dWQf7O0d4HIxEjlc8XuiR3ux7ooZBvWQZSiZKo+PDa44vFs4ss8e9g4uuBgpja44dkmiH1zZeXvZ2A/fiGXHHeznRHrD2X4fXP0S5Qt9qCAZoRdc4eJ+Ey9LHCvIT0KQlx9isp/hqrsnwjPZDctPxF22LFYsQcqd43Cw3yuLw+dZLvvhmXjo6Yx9+91xJ0WeNMrcRnYdd7z9ESfKxuOrx+DqEYaSAyetPsPQ1GcddkdIoy8t9+oZXM5uBItm8jMpgZEFmqj6wetqlmz6k3ha6Dd7EuoF78fuG2y874kf49AFNYwZVOfjBluQglAvNzgfPovbcW+5Qk559SaVE41bpw7Byc0b4cU7l91PJRtfHl7cPgWXw2dwI+AuHqWWqIQSxKnh8HZzwkHXCwguPmBLy3uBAJ8gJOclIPC0K05cfya79Ch+eRvHDthj35FbSJRIkP7gPJzY48PpakzRZf3SMZXXPxQrSA7FBVcXuN98iQ83uyAlFF5uzjh89jbk1SVBkr8b9tmzx6vTFTzJfIIrzmzb2muP/e53kCwR46WfK3scHcClZ+z+/syxQSpf9SUp5Y74/XYKsqP3wVqVK/skFZgP/hkLhpiy3asi0sEgm36ocfskTr9gm5ckHufv1UBXs1icPR4gu8b/1tcbOZ0GQZ8vRsyxpVjq/hoGZlp4un0g2o91Rgzbsb44MgFWSyPQuHs7vHMZhc6zPfBR98YUItrXE5Fa32Fk/2bQ4IrlRIhkE1FEwzZoW6pev1x8TGE0fD0jofXdSPRvVjo6vmE7tMg8it+WXwK/DTsyYMs0GqkjwuspjFsbyhcqKcsPdqNn4KS4JToYRuGwe4QssUlSg+E0pz+sJqzEhj9Xw275DKxyvQqnWX3RbYoD7hfyUbeDJdSvrcXPx9+guSk7NuRrobFWNO5kNUfbukyZ2/g8OQhOM/vCapItNqxcjM3uHtj5U3fY7I0uvheq3AatTR/izKkIruA9MV48eY5cLV3ovj9IebVQW6MAL56/kMX9OUrtZmJm1xQc3emOJK7zy715APdaTEO3D0ZQktSLWDZmCXxVW+Ebo2hs7NcJPx6LlcdZTr1JiWPYk8Ol7nhtYAatp9sxsP1YOMcUbR1HjOf7ZmJ1eDMM7NMAT3ethlvMx1sgeXEEE6yWIqJxd7R754JRnWfD44MDQnpism1id1jN/Avr58/D+gNbsaBfO3T7xQdvjC3RV+Uyflt5DFHsPtNu3Qu6d9diycF7KOTe/3dk+dlh9IyTELfsAMOow3AvOpGQIPXiMoxZ4gvVVt/AKHoj+nX6EcdiGRi0b4m0I0ux5YEKGmg1QdeWiXBcsgdxpu3ZtiCAkekbBATVRAuN0M8fG6TSVV+SklGGsmJmnH9Ey9oGA2vdwcmTMSiIO4cQvZ+xYVwLJJw7hpu5OfC9nIsuA/XAz72Mv9aHQFUjGQ/CkqFtaoR0Lwccf1qIjNditLS2RlvTVhjYzQxpEWFILNkC8iLhvGQTsqa7YLtNM3x86+UtQu8/gYqhET68bfEl4suLdMaSTVmY7rIdNs3KujGkhtbzVmNy3ds46ym/9Jgf6I10q+noWjzw4xTg7sZ5ONpwMVYObYXm307HotFmELBz+LodMGGSFQwlfLSYeQjXo+Nxek4fjGfLuIEgO4wxxthfp6Jp6DmceSH9pFzcviqG9Q8toFzONp7IbIfxU3rAkFFFu7ns2fQ+J2yZoIegG0GyRC7D10E9oxp4EhzCFbzH4F0ee+6uogqVEmf7DMMgPz9ftq2fxTfFlDnDoHJpF/ZLO1hJMk66ZsD6RwvZdhfLww27BfBsMgtze7ZA854LsWexCc4sWonzWeXXm7QOLv+1HiGqGkh+EIZkbVMYpXvB4fhT2dxihQi/7YsHUbF4W7stflj7G6z1SkcgJcl4zSYEa1i3NUWrgd1glhaBsFIHLLtJht9iuk1naOQpw3LNSZzzvI2r69rhuf1GHGOH9Wq1a6M4/yqhtpZG0aj8bym4i43zjqLh4pUY2qo5vp2+CKPNuJjzbsBugSeazJqLni2ao+fCPVhscgaLVp5HlqoFps3ojSwfL4Syu0+t9WD0N32Oi16RbGKXIN4zBuZzh8NIv+Pnjw1S6ao5Sf3HaPSGzSAdhJw6jqunw2Aw9Fu0GTsa7V554PiFC7hS8C0G6vEhjg1BWH4LDJ0+C7NmzcK8PQF4k3sby5uqoPVCZ6xu4AO7VevgEpoJhh29SIruEYsRtX0yloeZoVebch5skGQiPVPE9pNlDE+rOj5xFLZPXo4ws14oLzwZte8wb1YzXNtqjwhRNi6dSsN34953oiWIHsPr4lPomzZkuy45tRqqxR2YQAC+qj6M6hYfxjyhEoQlejhh66mY1iEEjgdCUcB2xj68vhiow4Za7jYK5OtQ0YGetnS9fGhpaUJUUPLCEQ8a6jXYqv7wCR4+6uhogZeXh/z3dcLk4m0eD9p16ny8fWXio/bgeZjSKAIHdl5GxkMneGtNwCj9D7ptUQR8rr9ETR1dbr3syNGyC8wyghEYEVF+vYljERKWjxZDp8u2e9a8PQh4wybv5U1lyxVTRa+Zs6FzciSam/fA7AsSmBl/vAXC1gvhvLoBfOxWYZ1LKDIZMSTFB2wRPo8PvoYh6snqVBnmY4ahnSQOT8sYnf1TosdeuPhUH6YNi7YaNVTl9SaK8MH1lzWho8ttA78uLLuYISM4EFEFfOgNmYIBmSdx2C8PuYGXkdPmO8S7HsTtt09w9rkJRrSSn01//tggle3rSFKSVwgJjuYmFJkarMYNg+G9fVh4zRBDOipDYDYGoztl4syvm/GumzXY/pFt/6oQxvvDN7L44JakRiM6IwcBtn0x6VIzzF+1AvOs6n2wgwQwn7EWIxLXYOIf11HmQ+J8DWio8ZCfV9a5XRXHJzDHjLUjkLhmIv64/qlH2AUw+34BBqc4YovLYXgy1hhe5pMOBRAVipGckFj6Uhk7Mvn8s10cfn2Mnz4Arw7vxeEjodAZ1lX+UEi521iR8Q6DAjYunvqHQz8+DDq0g3FWAl6+vz2U+xIJGQZo08GogkmKpdwBM2Z1Q9aJTZi/Pgztp3aXx1wSTw1qquxZfqz8vp6MmhpUhXWgpyv6RL2pssvEw983svh+jSQV0dEZ3MR77MlHs5nwehQK12l1cOuPgRix6cPLm+zmBdii76RLaDZ/FVbMs0K9CvYofA111BBoQ082OpMnkgrv0/IUiFAoTkZCYunEJx3J8qR1I4lHbGzxPDU19hioowdZ3qrVD1OG83DukCuOePMxdttCDC04AYdtR5HSbATeD8jIl6dYSUoshphhG1ipY0yMJK9duJSix00rNhXLcRjeMBXqHUagrfTkS1AfI0dbojC7Mfr005YtIzDphwEto7DZ5gds9Q7Fo1BPbF7rjhf8aFzyCAXPwBi1kIGIqASIC/ORlZDAvovtYNjGJm1Mm1wWQe3A95jpGlfGtXBNWFiYIO9VMrLK6G+rLD5pBygLbxNcFqnhwPcz4Rr3Pjp57NL5RbQGYuGPejjzsz00RlijzIGX0AJ9eprgudsGHI6SPsT9DqmvsyF+m43s99vGnrWX2kzZ57AvblKq9uCZsFF1x4obDTDKQn5GXO42KrNNgmHXWGIFsrhLrTOPjSMHRs0tuOliyl1+wGSLSPj7yx9nybsXjCdNp2CqpQobazJ89/yFY+ElHooowrCHfyH7km4NHw0mzMUIDT9cKhyMyebyHlLCtg9GLJLvc/aEYOQ4S2RfcIYH93hszoMIvOnzI0abtSq/3ngm6DegJaI22+CHrd4IZZOQ5+a1cH+hLFuHfD9Jt7QAN3fvRAC/KYb+cRTui5siITpetkwxEZ5d8kAozwDGtYCMiCgksNuQzybphDIefWSyM5DOte0s/zt40dkGIxqxo+HataGZ8QyPU8QQJfrj6v0M5OVks1HLFcckm+KmuckShBZ90NPkOdw2HIZ8s1PxOluMt9nZ4JmPxDjLbFxw9uCeJs7Bg4g36PPjaDSQVa8qvpsyBtrnVsK73lh8o90TP4yuidN7Y9BmiGFxR/mJY0OS7Is9fx1DmbuX/HN2dnayara1tWX3ffXJi77JuCzvwdTh8xntVgOZcRMnMhMnjmNG9mvDGOiPZY5lcAtWk/379zNTp07lpj6lkAm2ncqsjxBx0wwjTjrITJ19msnkpqXyo88wS/uZM7pqNZg6LUYx/wuQzs1jQrcNYhpqGzMdR/zCOO6dzjTRaclMcvRlgt0WMJ1rKjHmk+0Z/9jnjMNAHUagYcFM2OjJRGbL1/le3q2fmaaN5zK+eVxBKZUf38Rtxxi3BZ2ZmkrmzGR7fyb2uQMzUEfAaFhMYDZ63mUiTs5jOqgrMy1+dGQCEsWy9UuJE/czw7qtZEILuYKyZAYzeyd3ZIwNzZnuY+Ywv4xuz5hZTWc2nvJkji+UfmZDZsTGK8xzdlvF6WGM+7wOjLpSM+b7g0FMStFHiZjITSOZn06XPojK3MbMcObE3A6MmnILZqrjbSYy/BzzR686jFKjMcz2W/HcG/2ZX5o3YeZeeyef/sDbe1uZMcN+Zg6e2s8sGjmZ2RmaI5+Rd41ZaF6X6bvrORtRSTnM42sHmQVdDJj2M/Yxlx9J67qQubd6LLPspvQz3jJPfZ2YhZa1GL5yM2bSDg/mwWt240RxjMevA5nOPcYx85ctYWbN38xcf7/R5dTb5ivR0g1nziztx5jrqjE16rRgRv0vQLbvMyNOMvM6qDPKLX5kHAOimVPTmzPtBs9l1mzZxPw6exlz9OnHOyovdBszqKE2Y9xxBPOL415mehMdpuWkg0zYB1Xz7uR4RqdOe8bm5xXM6pWLmB8m/8qcjeVqIf8Bs2NwQ6a2YWtmwMJDzOGFHZimfeczu9n6Lh1TFBNWzrH0XmbwXmZyR2PG0Lw7M2bOL8zo9maM1fTNzJXoQra6PJhfB3ZmeoybzyxbMouZv/l6iWOEJYpkNo6ZxXhwDUEU8SczesFltvY5nzk28q4tZMzr9mV2PS+9d8k/Z2xszChMklJ0FU9SCkD0nNkz0JJZFlBmllIY+QGrmNk7P+ywFV9h6ErGqv8O5vGnAs9+wTwIfsgklZ3H/t+RJqk65osYv3yugJAKkCYpxbrcRyqHwBTTd8xAppMLpH/aoVjyEH3TA9eCbsHeMRM9xjao+L0aRSB5iRPOKZiwbRaafCpwDWO0at8c+hX684r/D9hzYe6yGCF/ByWp/yiB6WRsW6SHy44+qMQHqP49UQQOLRyD/gMW4/mgxRj+NX0jgCgONw55o8ZPWzDN/D/0txNVTJQUinPXHuFNSgguXoks/Z2chHwGJan/MFXzoZg9szcaKlJ/KuyA1YFpyEy6i+3DjL+uUZTQGN/9MB3DLKriiwH/u/i1GqD7H96IjTyGuR0NoUa9Dvkb6HAhX56yGtS+yoEInxrMP8BXqw19AwMYsC99vVqyL5QmpKKozRFCCFFYlKQIIYQoLEpShBBCFBYlKUIIIQqLkhQhhBCFRUmKEEKIwqIkRQghRGHxvv/+e8bZ2RldunSBpaUlV0w+FBYWhqSkJPTr148rIYQQUpUcHBzAmz59OiP9pU+fPujbty83i3zozp07iIuLw5gxY7gSQgghVWnt2rXgSb8FfcWKFbC1tcWqVau4WeRDjo6OCAwMlP0khBBS9UxMTOieFCGEEMVFSYoQQojCoiRFCCFEYVGSIoQQorAoSRFCCFFYlKQIIYQoLEpShBBCFBYlKUIIIQqLkhQhhBCFRUmKEEKIwqIkRQghRGFRkiKEEKKwKEkRQghRWJSkCCGEKCxBz549bX19fWFlZSV7fSmi5BAEp+jASDsfT664wuW4J3xu3MLdR2lQr28OfcljXDziAncvH9y4dReRmZowbVwXKln3ceLgJaQbtUR9zS+XY+/du4f4+HgMGTKEK3lPgszwczjgdBKXrt/CvVghTBoXIOCgI455X8PNwIdIVW+ApgbqkCTchpvTEZz3vY/UWuZoXleVW8fn5OCx527YLlqGSzXHwbqJkCv/NElGCE4fe4A85iFOH6rC+HIew3O3LRYtu4Sa46xROrxsRHnswspFK3Czrg36mFYs9rLkv7wF5z8XYf5JYPTgFlDhyksqCLBDnzFnoDe2PxqXtcC/IXoCT8cryDJtDqMaPK6wbJKMMJz43wE8MrGEhdbfPE7fPsFVVxcc87yKwNQ66NhcFwJuVhHxC1zauwvHroTgWbY62japy834nHy8vOWMPxfNx0mMxuAW5VVS5e23SpMdBY9dK7FoxU3UtekD03cfTCtAiKRybd26tXpGUpKks9hy6DXqNZA2EHU06TMBlm+Owm5bOExshqONLhuWZlP0n9AeKYfssCuqEcYPaQVttrgwYA8WL5yKIXNckSZfXTXjQ6vlIPRWuoK/1pxDbodOMFJrhD5D6+Oh/RpsDasL67a6sooWGFlicJ1wXMu3hHUrLfnbK0QVxu2NkR0agZR3Eq7s0yTp17Hudx8YjLJGu3ZVHJ+qMdobZyM0IgUfh6cC4w4GSA+OROo7hiv7h9SMoJkajNDEXPbUoGxC80GYu2AU2qhzBZVJ2ATWI+vAY/Fq+KaXvx/ECQE4vOFnLFhzEhFZ/2Cb1Zug15gWeHHAFstnr8bp1I8/K89/K+YvXIlt4UYYMbAVV1oxakaaSA0ORWLup46lStxvlUXFGB0M0hEcmQpZSB9Ok/+kaklSGZ5uuBQbhetBr7jORgDdOtoQqGujTg1ZgZxQG9q1BNCso1t01qxi7YCY1KOYZKQOxTlxEqLxhMnoqRYFfz/5NvH1h2P2mIZ4ez8I4QXypdiuBSFhmhg7tS3UuJKKEUJN2wh6NT999l5EkgbP5auQMHA2LDWlBVUcn1AN2kZ6KDs8Zajr1IN+rQrG/gkqOiZoXl+eUMvD126LETbfwqCKjmy+Tm8sGp6IFUs9kFZOHy8w6oIpyyegvTJX8E+oGqF++zawEHli58HHEHPFMpJX7Mj4ATQaCFFLTw8lm8znqUDHpDnqS08EP6ny9lulUVaHTj19FIX04TT5T6qWJKXZujXyji3FcqcQFPWPFZX/GN4HE9F70VDU4ooUAV9/GMb2UsKtk2eQIOu8hDBtZALek7M4EcxtZZ4fvLM6YrCRvNpzom/h1CEnuHmHI62oFxIjNdwbbk4H4XohGEn5XDF44L1vjOIE3DqyD/b2DnC5GIkcrvg90aO9WHfFDIN6yDKUTJXHxwZXHN4tHNlnD3sHF1yMlEZXHLsk0Q+u7Ly9bOyHb8RCxJblRHrD2X4fXP0S5Qt9qCAZoRdc4eJ+Ey9LHjD5SQjy8kNM9jNcdfdEeCa7YfmJuMuWxYolSLlzHA72e2Vx+DzLZT88Ew89nbFvvzvupMgzTJnbyK7jjrc/4kTZeHz1GFw9wlBy4KTVZxia+qzD7ghp9OVQVmJr+N/hafXD7En1ELx/N26w4b8nfnwIF9TGYFCdD5tvAVJCveDmfBhnb8fhLVf6XkFyKC64usD95suP2l3Z+7rEMSeV9wK3T7ng8JkbCLj7CGUM8FjlHb+l5b0IgE9QMvISAnHa9QSuP8tmS8V4efsYDrDHwpFbiZBI0vHgvBP22TvhagwXVInjTObDaY745W0cO2CPfUduIVEiQfqD83BijzunqzFcws/DiwAfBCXnISHwNFxPXIcsBKJwqiVJKXf8HbdTshG9zxql7nqI3yIlNhrR0dwrNhlvCj4Yx6uYY/DPCzBE4S5A62CQTT/UuH0Sp1+wzUASj/P3aqCrWSzOHg+AtK2+9fVGTqdB0OeLEcMm6aXur2FgpoWn2wei/VhnxLAd64sjE2C1NAKNu7fDO5dR6DzbA1nyDyjGFCLa1xORWt9hZP9m0OCK5USIZBNRRMM2aFuqcr9cfExhNHw9I6H13Uj0b1Y6Or5hO7TIPIrfll8Cv00DWUeu0UgdEV5PYdzaUL5QSVl+sBs9AyfFLdHBMAqH3SNkiU2SGgynOf1hNWElNvy5GnbLZ2CV61U4zeqLblMccL+Qj7odLKF+bS1+Pv4GzU3ZsSFfC421onEnqzna1mXK3MbnyUFwmtkXVpNssWHlYmx298DOn7rDZm8017mxlNugtelDnDkVwRVUFSW0mzkTXVOOYqd7EnfVIRc3D9xDi2ndSo+gJKm4uGwMlviqotU3Roje2A+dfjzGJmv57Cw/O4yecRLilh1gGHUY7kUJtrx9zc1+T/wc+2auRnizgejT4Cl2rXZDzEc5uiLHhwSJftswsbsVZv61HvPnrceBrQvQr103/OLzBsaWfaFy+TesPBaFQr42WvfSxd21S3DwXiH3/ooRGFuir8pl/LbyGKLYY0G7dS/o3l2LJQfvoVCSCL9tE9Hdaib+Wj8f89YfwNYF/dCu2y/wyeBWQBRGtSQpGWXlj840GfZM7a63Jzw9uZfXLTx78/VcbNaytsHAWndw8mQMCuLOIUTvZ2wY1wIJ547hZm4OfC/nostAPfBzL7ONIwSqGsl4EJYMbVMjpHs54PjTQmS8FqOltTXamrbCwG5mSIsIQ2LJDiMvEs5LNiFrugu22zTDx7de3iL0/hOoGBpB54O9+yXiy4t0xpJNWZjush02zcq6MaSG1vNWY3Ld2zjrKb/0mB/ojXSr6ehaPPDjFODuxnk42nAxVg5thebfTsei0Wayhwj4uh0wYZIVDCV8tJh5CNej43F6Th+MZ8u4gaC0p8LYX6eiaeg5nHkh/aRc3L4qhvUPLaBczjaeyGyH8VN6wJBRRbu59ti/zwlbJugh6EaQLJHL8HVQz6gGngSHcAVVh286BXOGqeDSrv2Q5hVJ8km4ZljjR4vSj1Lk3bDDAs8mmDW3J1o074mFexbD5MwirDzPpoiCu9g47ygaLl6Joa2a49vpizDajHt/ufv6gyxVGI7bvg8QFfsWtdv+gLW/WUPvo6c5JJ8/ftkux5DdjzadNZCnbIk1J8/B8/ZVrGv3HPYbj7GjfDXUrl0i/SrVhpZGWWOlz1OrXbtEIldCbS0N+aiLb8jWgQ06a+RB2XINTp7zZI+LdWj33B4bjyVwJwNEUVRfkioDT70ZBs+ah3nzuNfs0Wj30SUNBabRGzaDdBBy6jiung6DwdBv0WYsuw2vPHD8wgVcKfgWA/X4EMeGICy/BYZOn4VZs2Zh3p4AvMm9jeVNVdB6oTNWN/CB3ap1cAnNBMOOXiRFeVqMqO2TsTzMDL3alPNggyQT6ZkiqKiW8WReVccnjsL2ycsRZtYL5YUno/Yd5s1qhmtb7dmONxuXTqXhu3Hy5FOK6DG8Lj6FvmlDtouRU6uhWnx5RyAAX1UfRnWLjxGeUAnCEn2asPVUTOsQAscDoShI94IPry8G6rChlruNAvk6VHSgJ31Sh20iWlqaEBWUvEDGg4Z6Dbaqv8CjO/zaGDxvChpFHMDOyxl46OQNrQmjoF+q3xYhwuc6XtbUgS5Xify6luhiloHgwCjkPvbCxaf6MG1YVIuooSpfwafqoRTVXpg5WwcnRzaHeY/ZuCAxg/FHO0z4meP3PT54fD40DOvJHoaCsjnGDGsHSdzTMkZnVYTPA5+vAcN62rJOUNl8DIa1kyDuaYxspE4Ux1eUAb4GarAaNwyG9/Zh4TVDDOmoDIHZGIzulIkzv27Gu27WYPtHtsGrQhjvD9/I4o5PkhqN6IwcBNj2xaRLzTB/1QrMs6r3wQ4SwHzGWoxIXIOJf1xHJldaCtvwNNR4yM8r62ZAFccnMMeMtSOQuGYi/rheZnQcAcy+X4DBKY7Y4nIYnow1hpf5pEMBRIViJCcklu44GAYVHl/z62P89AF4dXgvDh8Jhc6wrvKHQsrdxoqcRzMoYOPiqX809KsSyh1mYFa3LJzYNB/rw9pjavcPH2vhQU1NFZL4WMQWVZQa1FSFqKOnC0GBCIXiZCQklu5+GbYeK1wPEgmazfTCo1BXTKtzC38MHIFNH92Ty/3M8VseNmGxSV+grScfncnyZ4X38CfIE3GF1sS2G/UaAmjr6X18skSqlcIkKZFIBEYi/uAsRgyJmO2Q2AbytVCxHIfhDVOh3mEE2kqvZwrqY+RoSxRmN0afftqyZQQm/TCgZRQ22/yArd6hbMP3xOa17njBj8Ylj1DwDIxRCxmIiEqAuDAfWQkJ7LvYepB2KrX6YZPLIqgd+B4zXeOK75MU0YSFhQnyXiUjq4xqq7L4pIlDFt4muCxSw4HvZ8I17n108til84toDcTCH/Vw5md7aIywRpkDL6EF+vQ0wXO3DTgclccWvEPq62yI32Yj+/22safppTZT9jnsi5uUqj14JmxU3bHiRgOMspBfZC53G5XZJsGwayyxAlncpdaZx8aRA6PmFtx0GdhjVhpZqW2WJMN3z184Fl7iKYjyMGK2btmXdOP4DTBh7gho+F1C4eDJMJf1ohKI2bYhFknrmD15GTkOltkX4OzBPTGb8wARb/rgx9ENoGLRBz1NnsNtw2HIqzEVr7PFeJudDd6n6qHkfiu4id07A8BvOhR/HHXH4qYJiI7/4OgTPfvE8fshBtkZ6Vx7z4L/nRfobDMCjQR81K6tiYxnj5EiFiHR/yruZ+QhJ/udbEnZfii5Lz6cLoFfuzY0M57hcQrbryT64+r9DOTlZLNHEYfJRkY61+Nk+ePOi86wGdEIgr+zn0iVq7Y/5i32Fk+uHcEeezcEPEmDSMsIjczkf8x75fAu7D0WhOgsBrWNTNG4cV185m8oq0z5f8z7AYEBdNJeoMboqeimJ23oPGgaixD9uj1mj2wmf1CEXxedejVHjt9h7Ny8FU7Xc2H1mx3GmelDKy8YThu24GhQBozbaiPi3FUkN+oEk2enYH/UH7ECI3QeNAxG4buxafd5PFNqgOatG6NO0ePOAuipRePooRR0mjEADT688VcF8SXVbQCRnzuO+sdCYNQZg4YZIXz3Juw+/wxKDYyh9fAYdh6+hRdCE7T7pg3qaUp3Ih965nwE+Rli/oo+0C/zdEmIBl0soRt1FGttt+Pc3Ri2Y01FYq4SVGoJkHzRFUdvReGthgU6djBFrexwnNmzC0f84iBs0AmWrQ2hLv0ooRHq54UizepXTGzOXQYtbxt1nuHMzp1w8XsJZZO2aKL8AEf3ueDGUxF021mik0lNtsO+B9f1V9Fg0VoMaPhhBbPpIz0cXk4H4XIxFJkaJmjKJrN6NdkNLAjCjh+W4Ir+WIz/pnb5Z4hvn8D3qAPs919DklZDtj00Qj32xCMnShk2vw5Fg4JnuH7UHvtcA/AkTQKd+o3Q2XIwerRIw6kN2+AZHok7l5/CdMlGzGytAZ6wAbpY6iLq6FrYbj+HuzFvkZ2aiFylGjBuNQjjRrb4uB5M8/Hw7O7i/dZOGTd++w3OUa+QFBWKl3Un4JdpbeSX697ja5V9/DYegOFtS/6xsQiRp/+Hc49ykRb/CLcvHMftWnOwdXlX1OYLUFefwZ09K2F3yA9ZFt1Q9/EDJCmpoWEDFdxz2YXDt15AaNIO3zTMwtU9O4un29SD7NDiCOrqg7mzByvtDsEvywLd6j7GgyQlqDVshY6G8Tj9v3N4lJuG+Ee3ceH4bdSasxXLu7L7paL7iVQ56R/zws7OTnoSwtja2rInJKQ8+/fvZ6ZOncpNKTjRc2bPQEtmWUAeV6CY8gNWMbN3PmdE3PTXojB0JWPVfwfz+GsLXGG8Y06Or8OYL/Jj8rmSL+7dSWZ8HXNmkV+1RUAqwNjYmKGThP8igSmm75iBTCcXPPvwtkG1y0P0TQ9cC7oFe8dM9Bjb4Ou6ByB5iRPOKZiwbRaa0M2Lf449NWb7IG6iekgvElZzCKQCKEn9RwlMJ2PbIj1cdvT5ck9MVYQoAocWjkH/AYvxfNBiDP/sNx8oEFEcbhzyRo2ftmCa+ceX+UhFiJAUeg7XHr1BSshFXInM+PKPfIuSEHruGh69SUHIxSuIrNDDMqS68KSX+1asWAFbW1usWrWKKyYfcnR0RGBgoOwn+ZcKcpHLV4PaV9fPS9j/+HRm969IkJvxCll50iEMDwK12tCrVdnfBPwZklxkvMqCPAQB1Grr4UuHQCrGxMSE2hupBspfY4KSogT17/HZpKAPAwMD9qX/5ROUFHuCVFtf+vnsS58SlKKjNkcIIURhUZIihBCisChJEUIIUViUpAghhCgsSlKEEEIUFiUpQgghCouSFCGEEIVFSYoQQojCoiRFCCFEYVGSIoQQorB4U6ZMYQ4dOoROnTqhc+fOXDH5UEREBJKTk9G7d2+uhBBCSFU6cOAAeDNmzGD27duHfv36yV6kbNIvl42Li8PYsWO5EkIIIVVpzZo19C3oFUXfgk4IIV8WfQs6IYQQhUZJihBCiMKiJEUIIURhUZIihBCisChJEUIIUViUpAghhCgsSlKEEEIUFiUpQgghCouSFCGEEIVFSYoQQojCoiRFCCFEYVGSIoQQorAoSRFCCFFYlKQIIYQoLEpShBBCFBYlKUIIIQqLkhQhhBCFRUmKEEKIwlKAJCVCcshdPM/nJssgybwP9z2HcCtRzJUolrdPrsFlx19Ya2cHO7u1WPvnX9i8wwFunncQlyPhlvo3RIi56Aj30CxuuiJyEH3zBBx3bMFW+2O48TwHosSHeJhaGfEQQsiXUc1JSoKks1tw6HU9NFDhispQGLAHixdOxZA5rkjjyhSJepOeGNshDa52uxGq3Qejxo5Av7baSDg1B50adcLMo09QwC37j0gScHb9PPyy7658Ov8FYj+RsHMfuWD6t72w5DpgMcAGo3o2QOqJBejTfTKcn4q4pQghRPFVc5LKgKfbJcRGXUfQq/LP8FWsHRCTehSTjNQh5MoUjVC/LnQEKtBv2gZNGzVBy+9GYcnB6zg7UwC3qWOw6nYut+Q/wNdFA5PaMG3SmJ0Q4Ynjb9geUiif9wFJ2gUsHLoAjwYdwPGVo9HFzAjGTTpj1HIH7F/YHOIMGkkRQr4e1ZykNNG6dR6OLV0Op5BPjDXyH8P7YCJ6LxqKWlyRIuJxP4tpoPMvv2OU9kPs23KmaBRYkBIKLzdnHD57G3FvuUKp/ETc8fZHnCgbj68eg6tHGNJlOUUFFq2+RUsLDYQ5/4QRyy4g6LIjHM6Ho+TbpQns4Z7VcHndAzOnt/ggoQtg9sMCjDaS73Jxaji83Zxw0PUCgpOKr7XmJwXByy8G2c+uwt0zHJmyz89B9K1TOOTkBu/wNCjmRVdCyH9RNScpZXT8/TZSsqOxz1qVKyuDijkG/7wAQ0wVdRz1CZrfomtrId7cC0BYvgSpF5dhzBJfqLb6BkbRG9Gv0484FiuGJDUITjP7wmqSLTasXIzN7h7Y+VN32OyNZpOCAKYDF2JiBzUYWPZFhzrsiK2VFazaGqNUrUkS4HM1DBLT1mhdkysrSa0DurRRhuTFEUywWoqIxt3R7p0LRnWeDY8sNrZgJ8zpb4UJKzfgz9V2WD7DFh6vYtiTiKVwf20AM62n2D6wPcY6x1CiIoR8EdWcpOSUlb/C5FNhKtBQV2KHKHl49+4G7BZ4osmsuejZojl6LtyDxSZnsGjleWTrdsT4KT1gyKii3Vx77N/nhC0T9BB0IwjScY6wuSU66ahBt74BaioJoFHXDE2Mtdj0VYIkHRmZDJuM1KH+8bCuiCTjNcQtrWHd1hStBnaDWVoEwhIZ6HaYgElWhpDwW2DmoeuIjj+FkaF/YX2IKjSSHyAsWRumRunwcjiOp5SlCCFfgEIkqSKSl3Cb1Qvdu3eXvXrOcuVmfMXEyXiZmAd+vYYwfuyD6y9rQkeXSy38urDsYoaM4EBEFQA8oRKEKjrQ05buFj60tDQhKvgbj1zwDWBYVwjm9SukfCKJCFsvhPPqBvCxW4V1LqHIZNiRnIRNbiyBgA9VfSPUlR0ZYsSGhCG/xVBMnzULs2bNw56AN8i9vRxNS2VHQgipGoqVpPhaaDtyOmbOnCl7zRjRlpvx9RI9dseZUGV8M2oEzDXVoCqJR2xs8RN2amqqENbRw/u89a/w9TBgpBU0on1wMbKMp/gkKXgenYncAFv0nXQJzeavwop5Vqj3iaNAVVWIeH9fRBblSglSo6NBz18QQr4ExUpS0ESz3mMxbtw42Wtsn+Zc+VdAJP7oPo042Qd//LgRTzvZYuf8ZlA2H4lxltm44OwB+cOMOXgQ8QZ9fhyNBtIkxbCF8gGNDCP9nf2/EkXS4RaE/DzkvM1HRmwM0kolCz5Mvt+Mdb1TsHPGb7iYUCJRiRJw1f4Unqmq4dklD4TyDGBcC8iIiEKCuBD5WQlI4FYmkcYhI4BJvwFoGbUZNj9shXfoI4R6bsZa9xdQVrAjhxDy30RdTSV4+8QXh+09EFmYhmtb5mLBL79g4cyJGDpxK14Pc8HtC7+grfQJB0FTzHc+jEmZW2AzcQGWL/0Vvi12wH6yCfhZETjv7o/49BCcdw1AVIQXjt+MQ/5DTxzwS5B/kJSyBXpbm8Dv1wFYfiMPmh/uQeXmmH3CFwf6v8S6gZ3RY/AYTJk+D4ttT0I0aDr6GSrDfNhk9Erdiv6Wo/FnuDHaGSfgvL0PYp6fx6mAZGQFuGGnT7T8XljLxXA7Mgf1Q9ZjVNfumOyshHGzrKAu/zRCCKlSPDs7O2bFihWwtbXFqlWruGLyIUdHRwQGBsp+EkIIqXomJuwJPPc7IYQQonAoSRFCCFFYlKQIIYQoLEpShBBCFBYlKUIIIQqLkhQhhBCFRUmKEEKIwqIkRQghRGFRkiKEEKKwKEkRQghRWJSkCCGEKCxKUoQQQhQWJSlCCCEKi5IUIYQQhUVJihBCiMKiJEUIIURhUZIihBCisChJEUIIUViUpAghhCgsXt++fZnLly9DSUkJysrKXDH5UGFhISQSCVRUVLgSQgghVSk3Nxc8W1tbhn3h119/xW+//cbNIh9ydnZGUFAQdu/ezZUQQgipSk2bNgXPzs6OWbFiBaSJatWqVdws8iFHR0cEBgbKfhJCCKl6JiYmdE+KEEKI4qIkRQghRGFRkiKEEKKwKEkRQghRWJSkCCGEKCxKUoQQQhQWJSlCCCEKi5IUIYQQhUVJihBCiMKiJEUIIURhUZIihBCisChJEUIIUViUpAghhCgsSlKEEEIUFiUpQgghCouSFCGEEIVFSYoQQojCoiRFCCFEYVVbkhIlh+Du83xAkoKQM/uxZd1a2K39C7uOXMezt/JlxIl34G6/CWvXbmDL/fFCzC6eeR/uew7hViI7oSDePrkGlx1/Ya2dHezs1mLtn39h8w4HuHneQVyOhFuqIt7i4Ymt+HPVj+jdZRCWnonlyisqG1EeWzB7YC8s82HrtipkR8Fjy2wM7LUMlfMREqTcccGqyT0xYlM4RFxpxf3bOvvnCgLs0LPLQnhncwWVIDvKA1tmD0SvZT74u9VbFfEQUt2qJUlJks5iy6HXqNdAhY2gLtoPHQqtwA2wc01Du9FWMFOXLycw7IRRQ9Tgf1WC3jZdYSIACgP2YPHCqRgyxxVp8sWqnXqTnhjbIQ2udrsRqt0Ho8aOQL+22kg4NQedGnXCzKNPUMAt+yn5fraYdtYA81bbY9dUbQT73OPmVJQKjDsYID04EqnvGK6MXe+LWFRaTlcxRgeDdARHpqLER/wLfGhZWKJ2/F08y/r7We/f19k/JzQfhLkLRqENd7xWBhXjDjBID0Zk6jt8vnrz8SI2Ee93bVXEQ0h1q5YkleHphkuxUbge9Io9j2bxa8Gwbk3wdfVhIJQtUoSvrQ8j0/ow4cpVrB0Qk3oUk4zU8cGi1UqoXxc6AhXoN22Dpo2aoOV3o7Dk4HWcnSmA29QxWHU7l1uyPCKEeV1GiqYOlNn/mk5zwbXdI7h5FaUMdZ160K/F46ZZoidw/G07Qgq56X9LWR069fRR8iP+LRUNQxjUUcbfX2Vl1Nk/x9duixE238KgEluRsroO6unXqlBdiJ444rftIXi/a6siHkKqW7UczpqtWyPv2FIsdwopHmHweOU0TLa05Iz8x/A+mIjei4aiFlekKD6OXwOdf/kdo7QfYt+WM0Ujv5zoWzh1yAlu3uFIk54GSzIQcsoBRwMSkfPkIvbvO4aAFDZ9i1MR7u0Gp4OuuBCcJLv8I355G8cO2GPfkVtIlEiQ/uA8nPbZw+lqDHdGzdbj+0Cyw+D80wgsuxCEy44OOB/OXUeVkV5mOw4H+72wd3CBzzM2iUoy8dDTGfv2u+NOOZ8vU7SvxHh5+xgO2O/DkVuJkEjS8eC8E/bZO+FqTPHQ7aPtLQOPC/ptzE2ccDuLgLjSSb3CdcYqSAmFl5szDp+9jbgSm5yf9H/t2gtcVFUeB/AfwwyMvGJ4iEAguATqoiwGZrSboCsuklpq+ODjtmqiuAqYgWmCuFCWUpnPVBIUH0gmJYJp4iPjkUojjwwTBzQgEAEVkNfM/PfMDIogmnx2y+nzOd/PR5k7997z+J/L/Z/DveeQ8W0pGkoykZJeiJvqwxshO/M5dibsxZHC2nurku5armXj811JSD2dg7MXazSTq9ZKnM34FmUdJ7VV5SHjmyuQt5Qh68AeHMytUF/frRW5OJi0D5k/NaoGENnJn+KTrbtxplIJZV0+DiVsxScJmbgbsruxuEtRU4gjexOwY89hnP9FMwoNBYmYO2kpDp87hvhth6Ae2m7tYS1CtTQDexOT8EX2Vdw/+q2V3+FI1lXIGy4hM3kP0grqNH3iOC3zRJKUnufbyK5ugGyrH8Qd3z02fReMXxyKCQO0aR31CMZ/xQtuQtz+PgcFrQqUsuQckXID1k6muPyxP56dmohSMoSj50i42ehD3/Yv8PEZASfjcuwO9EZE0TMYOawZu6aMwIK0W9C184Kv/jEsj0pGcbsAZm6jYXk2lq3avr83o75HZA0vXw9Y6PfDUG9vuNvdH20BrDy8YHgiFov338bgAQbsK1M8YyrDd7cGw92y5/q70oWdly/0jy1HVHIx2gVmcBttibOx4djxvao1D+lvj5mA0Ji3BQsWx+HTtfPh7T4Kkadvsu97ETM2a6n5aikCwk9CPHQ4bGVrMPa52Ugua0fN+QT8+x/eCIx6H++uisFb86KRdr0UyRERSLlhDSfTy/jY/1lMTbyb7DsprmzF/FWFGOQ/Bg6XN2LV3lK01ZxHQrAvXnxtGy60s8mCdDcW+v0NAdEbsSFmI1JP7MKbY0ZhwUfr8fY7e3EqfS0CvOdif60tGxN9HFseheTidrb6ccNoy7OIDd8Bdci6UV7bjUDvCBQ9MxLDmndhyogFUA2DyJpdBx4W0O83FN7e7rBtuL89qhNr8NXSAISfFGPocFvI1ozFc7OTWQJTouZcAub7emNm9PuIWhKHlLQNmDtyGrbIehwYjnuintwfBvT0tOrPdb8dfRgZitjUtQXNTcfw3uo8iI2qkF9QBbMBtqjL2Ib9l3VhZu+EfkZCiIxt4OTsAEu9etxQDIGfnzsGDPXHi061KCrQPH8wkEjQR1M4I4LE1KiHVRwjtkR/axOIdI1g5eQMO1Pdjh0ddO0wddkcDJR+idRrqnn0HWRnKuA3yxV6bKXysPq7MoBE0tkaiCQwNepozZ2H9bfnm6GuUyC2fXEIX333DT7w/AnrViejsrEXMcNpxISmwzl4IUa5DsaosM1YYp+KN6IOQ88jEDO9baAUuGL+zlOQlX+OydL3sDpPDKOqfBRUmWGAbR0ytu1H9+a1F2bjZH4xypokcJ8Vi+V+fSGy9MCMmd6wVf8GscmCewBm/b0/BOLBCIyJQ9zGeIR6liPnF0/Ebl6P9YmrMAE5OFXAMoiBBF1DZoq7IetOWX8DiiF+8HMfgKH+L8KptggFlQo2tP1hbSKCrpEV67sdzPrd3x628jsdg9B0ZwQvHAXXwaMQtnkJ7FPfQNShBlh6zsBrPjYg8TAs/GQ7tiZ8gMC+53D6XO+fCXLcb+3JJaluREJ2A1UoHrwJKlW/OHqaz39Eiir8XNkCwdOOsK/IY6spV0wMCkZwcDAWbc7B7TvZeGtgt+ShInRDGLuxORyPwcp3dkF6k6BQKh/jYXrvCN3m4HWPPMR/KkVbXQaO6/jC31y943+uX1HWi/6yNNvnKROW0hk9Z0ydNBzKqzKUljx+GfKi4zj1swnMLTv2Cazg9bwT6s/noriNJUFdAcT9bGGlvuoVKMsrQKvrRASxcoODF2Fzzm3cyX4L3YsWj56PBeYHMHmwC3wWHIbSyY6tIVmLhSII7yUXAYQiIXQNjGCkKl9gAhNDAfoYm2gmYzqGMBDL0dbauxEUuoUhcZUDjsesxDu7pLhJCiiVPZfR2R45io6fws8m5ugMhReed6rH+dxitLFYq9qqb94XZuq2msLUmLXtcd7u4bjfmZYkKV1Y9jUDXa984C00RXkFlH1t/rCrLvmlFKRK9TB8yiQ4G4ohLM/CyR877wbKGhlk9T08DbiTg2jfmTg6KAQrIxfB++n7h0pzZ/y/JCxBf8wIGofrSVuQtFsK85dfYGsj5pH1d6NuTg+tEfeiv90IdHQgsraFtdHjl6FjYACxshxlZZ0vshsYsPMt+t67Wd9PLBaiPOskOotWokYmQ/eilcpBmJ9xEdI9r8PizAr4T1qLot6/K9/Fw0LW3Z2caPjOPIpBISsRucgbjxqGTjrqfivLy9AZCgOWJIWw6GupTrAc90ehJUlKiEETXoZrdQaSjlZ3PsBtK8MX63Jh6z9M+9dS8gdXgYqq41gxew0uPxeNDSGDoGc/FuOGFCNu2ix8dESKi9J0xMWm4JqeZhiUSgXkcs2DCXnJUaRJdWBt9xRQX4TiCgXaW2+hoqIWAokExvUluFTNjq/MQuaFerQ0NqBZfSaBSPVPvcFm10IIWhrR1FqPstKeX9qXjJ+PaeIURJ52wJQ/a6YDj6pfVbi6DvWRAkgkxqgvuYRqhRyVWZm4UN+CxoZm6P5Kf7si1ne2SlB9VFbi8NfVGD8vAA4Ojx8zXZfJmO7VgMOJabiuLqgR+UW3MWb2q3DouDMr6e7VpQv7seMwpDgO02Z9hCNSloTS4xCbcg3dm9f2zSZsyBFg4MQV2JeyBAMrZChXDXaXOKg2Oz+rsM2O/+5SHc9+CCSQGNej5FI1FPJKZGVeQD0bIxYyzVGqctQHylFyNA1SHWtohqEYFYp2tN6qQEUtQSgUsHFvQmt9GUprWb86ziPWN5fJ0+HVcBiJaR1v0Dbmo+j2GMx+1UGdpFRh6GyZpt2aOpWoOrkZ7yUX4tfeR+W430VMTIz6+oyOjmbX6JPUSrLU5fTyCA/ynhBA06cH0CsTZ9DbB6+wPU/e9u3bac6cOR1bXTVeOkEJi18gU11DcvF7nUKWLKHQeYHkP3oczVmdRpebOg5kWmWpFDHWhSwN+pCF6xT6MOcm+7aJLh1bRzNcRCRyDqR1n+XStSYprXvJkczsPGnSm/G0JciZzIfMpB0FzayQfFo/3pEkNm40LmwnJYV50EDfENp05iIVHVhEHoZ65Do7nnIqFUR16RTqZkX9vYIo8eLDIimnH9dOprkH6zu2mZaH1J+VRwcWeZChnivNjs8hVRWt+etpvKOEbNzGUdjOJArzGEi+IZvoTLn8If3tTk7Xjr1LgT4+9Mq8CIoMD6WofT9QY8fex46ZnJV0NY2W+Y8gn+khtDQ8mELiTlG1QkG1F/ZT2AgTEjlOojVfX6EWTcnsmougsS6WZNDHglynfEg9Na85NYgGDxtPC//zAa1dtoCW7rtMrXUFlKKKg2gQ/WvHOZL9cIjC//oUiVz+SVvOyKjkxIf06gARWY5eQV8WXqFzexaSp6GY3ObuJumNZspfP54cJTbkNi6MdiaFkcdAXwrZdIYu5h+gRR6GpOc6m+JzKumOdB295GhGdp6T6M34LRTkbE5DZu4g1WVQlx5Kblb9ySsokYqquraHTRjoatoy8h/hQ9NDllJ4cAjFnaomNlx0s/AzWuhhwOqYQ/HZP1LhlytotIWI/hTwMRuzJjoR5kJWvhvpCosnxz1JdnZ2pKNKUpGRkWBJCitXrtRkLu4B8fHxyM3NVf/kOI7jfnv29vba8+IEx3Ecx3XHkxTHcRyntXiS4jiO47QWT1Icx3Gc1uJJiuM4jtNaPElxHMdxWosnKY7jOE5r8STFcRzHaS2epDiO4zitxZMUx3Ecp7V4kuI4juO0Fk9SHMdxnNbiSYrjOI7TWjxJcRzHcVqLJymO4zhOa/EkxXEcx2kp4L8jlfVOXSN+1gAAAABJRU5ErkJggg==;" vertex="1" parent="1">
          <mxGeometry x="590" y="280" width="126.7" height="110" as="geometry" />
        </mxCell>
        <mxCell id="CzFrGwOpRJIVh9ln8tWY-32" value="STD_LOGIC Type Demystified" style="text;whiteSpace=wrap;fontSize=6;fontFamily=Times New Roman;fontColor=#000000;spacingTop=-6;" vertex="1" parent="1">
          <mxGeometry x="626.7" y="360" width="90" height="10" as="geometry" />
        </mxCell>
      </root>
    </mxGraphModel>
  </diagram>
</mxfile>
